<?xml version="1.0" encoding="utf-8"?>
<!-- Generator: Adobe Illustrator 27.5.0, SVG Export Plug-In . SVG Version: 6.00 Build 0)  -->
<svg version="1.1" xmlns="http://www.w3.org/2000/svg" xmlns:xlink="http://www.w3.org/1999/xlink" x="0px" y="0px"
	 viewBox="0 0 500 500" style="enable-background:new 0 0 500 500;" xml:space="preserve">
<g id="Background_Complete">
	<g>
		<path style="fill:#F5F5F5;" d="M467.735,191.656c0.749-5.436-6.924-9.909-12.689-10.373c-2.749-0.222-5.605,0.199-8.21-0.709
			c-5.643-1.967-7.898-9.258-13.404-11.58c-4.117-1.736-8.856-0.19-12.847,1.818c-3.991,2.009-7.935,4.536-12.394,4.822
			c-3.878,0.248-8.09-1.19-11.483,0.705c-2.529,1.412-3.853,4.325-6.184,6.044c-2.28,1.682-5.254,2.038-8.083,2.192
			s-5.758,0.182-8.334,1.362c-2.576,1.18-4.707,3.903-4.172,6.686L467.735,191.656z"/>
	</g>
	<g>
		<path style="fill:#FAFAFA;" d="M216.797,102.415c0.589-4.277-5.448-7.796-9.984-8.162c-2.163-0.174-4.41,0.156-6.46-0.558
			c-4.44-1.548-6.214-7.284-10.546-9.111c-3.239-1.366-6.968-0.15-10.108,1.43c-3.14,1.58-6.243,3.569-9.751,3.794
			c-3.051,0.195-6.365-0.936-9.035,0.554c-1.99,1.111-3.032,3.403-4.865,4.756c-1.794,1.323-4.134,1.603-6.36,1.724
			s-4.53,0.144-6.557,1.071c-2.027,0.928-3.704,3.071-3.283,5.26L216.797,102.415z"/>
	</g>
	<g>
		<path style="fill:#F5F5F5;" d="M170.39,74.063c0.985-7.157-9.115-13.044-16.705-13.656c-3.619-0.292-7.379,0.261-10.808-0.934
			c-7.429-2.589-10.396-12.187-17.645-15.244c-5.419-2.286-11.659-0.251-16.912,2.393c-5.254,2.644-10.446,5.972-16.316,6.348
			c-5.106,0.327-10.65-1.567-15.117,0.927c-3.329,1.859-5.072,5.694-8.14,7.957c-3.002,2.214-6.917,2.683-10.641,2.885
			c-3.724,0.203-7.58,0.24-10.971,1.793c-3.391,1.553-6.197,5.138-5.493,8.801L170.39,74.063z"/>
	</g>
	<g>
		<g>
			<path style="fill:#EBEBEB;" d="M90.881,338.741c0,0-7.501-2.432-11.021,14.872c-3.519,17.305-4.02,26.86-4.02,26.86
				s-1.161,3.743-3.919,2.273c-2.758-1.471-7.381-6.531-10.795-4.442c-3.541,2.167-3.617,6.811-1.133,12.916
				c2.484,6.104,7.435,19.678,7.878,20.907c0.435,1.207,0.233,3.218-1.806,2.517c-2.039-0.701-14.94-8.941-18.483-2.586
				c-3.543,6.355,6.17,22.224,7.199,23.979c1.029,1.755,0.883,2.667,0.112,3.386c-0.77,0.719-4.845-2.46-8.61-4.653
				c-3.765-2.193-8.515-4.077-10.252-0.238c-1.737,3.838,1.02,17.002,19.158,34.594l8.938,7.601l11.164-3.776
				c23.399-9.536,30.877-20.716,30.701-24.925c-0.177-4.209-5.286-4.238-9.598-3.611c-4.312,0.627-9.28,2.052-9.725,1.097
				c-0.446-0.954-0.24-1.855,1.37-3.098c1.61-1.244,16.552-12.331,15.641-19.55c-0.911-7.219-15.956-4.399-18.11-4.511
				c-2.154-0.112-1.589-2.053-0.734-3.01c0.87-0.974,10.537-11.713,15.122-16.447c4.586-4.733,6.252-9.069,3.777-12.403
				c-2.386-3.215-8.565-0.249-11.673,0.084c-3.108,0.333-2.785-3.573-2.785-3.573s3.107-9.05,6.311-26.415
				c3.204-17.366-4.863-17.888-4.863-17.888"/>
		</g>
		<g>
			<g>
				<path style="fill:#E0E0E0;" d="M62.884,479.264c2.404-12.744,7.056-35.323,10.949-54.729c3.892-19.399,7.4-36.967,9.868-49.697
					c1.225-6.356,2.218-11.504,2.907-15.08c0.342-1.769,0.609-3.147,0.793-4.1c0.092-0.457,0.164-0.811,0.215-1.065
					c0.051-0.239,0.086-0.36,0.086-0.36s-0.01,0.125-0.049,0.367c-0.043,0.256-0.103,0.612-0.18,1.071
					c-0.169,0.956-0.413,2.339-0.726,4.113c-0.634,3.571-1.589,8.731-2.793,15.103c-2.403,12.744-5.871,30.321-9.764,49.72
					c-3.894,19.406-8.586,41.976-11.053,54.706"/>
			</g>
		</g>
		<g>
			<g>
				<path style="fill:#E0E0E0;" d="M67.308,385.644c0.022-0.013,0.198,0.232,0.498,0.688c0.303,0.454,0.72,1.123,1.229,1.955
					c1.014,1.665,2.355,4.001,3.789,6.606c1.404,2.574,2.674,4.9,3.646,6.681c0.443,0.799,0.816,1.474,1.117,2.016
					c0.266,0.475,0.403,0.744,0.382,0.758c-0.021,0.013-0.199-0.231-0.503-0.684c-0.301-0.455-0.719-1.125-1.219-1.962
					c-0.997-1.676-2.308-4.029-3.741-6.633c-1.422-2.562-2.708-4.879-3.692-6.652c-0.447-0.798-0.824-1.471-1.128-2.012
					C67.421,385.927,67.286,385.657,67.308,385.644z"/>
			</g>
		</g>
		<g>
			<g>
				<path style="fill:#E0E0E0;" d="M79.062,404.26c-0.052-0.086,4.642-3.064,10.483-6.65c5.844-3.588,10.622-6.426,10.675-6.34
					c0.053,0.086-4.641,3.063-10.484,6.651C83.894,401.507,79.114,404.346,79.062,404.26z"/>
			</g>
		</g>
		<g>
			<g>
				<path style="fill:#E0E0E0;" d="M71.74,433.786c-0.006-0.025,0.288-0.119,0.824-0.27c0.609-0.167,1.369-0.375,2.271-0.622
					c1.916-0.528,4.56-1.267,7.446-2.19c2.89-0.917,5.476-1.838,7.343-2.52c0.879-0.32,1.62-0.59,2.213-0.806
					c0.524-0.188,0.818-0.28,0.827-0.257c0.009,0.023-0.267,0.16-0.775,0.389c-0.508,0.228-1.249,0.544-2.173,0.914
					c-1.846,0.744-4.426,1.706-7.325,2.626c-2.895,0.926-5.557,1.628-7.493,2.093c-0.969,0.228-1.755,0.404-2.302,0.51
					C72.05,433.763,71.746,433.811,71.74,433.786z"/>
			</g>
		</g>
		<g>
			<g>
				<path style="fill:#E0E0E0;" d="M57.402,419.288c0.018-0.018,0.237,0.165,0.618,0.51c0.432,0.404,0.964,0.901,1.591,1.487
					c1.332,1.266,3.154,3.034,5.151,5.003c1.998,1.969,3.792,3.766,5.077,5.079c0.595,0.618,1.099,1.142,1.509,1.569
					c0.351,0.376,0.536,0.593,0.519,0.611c-0.018,0.018-0.237-0.165-0.618-0.51c-0.433-0.404-0.964-0.901-1.59-1.487
					c-1.332-1.267-3.155-3.034-5.152-5.003c-1.997-1.968-3.791-3.765-5.077-5.079c-0.595-0.618-1.099-1.142-1.509-1.569
					C57.57,419.522,57.384,419.306,57.402,419.288z"/>
			</g>
		</g>
		<g>
			<g>
				<path style="fill:#E0E0E0;" d="M47.626,444.533c0.018-0.018,0.296,0.218,0.785,0.66c0.533,0.494,1.22,1.132,2.046,1.897
					c1.716,1.614,4.069,3.861,6.653,6.359c2.584,2.499,4.91,4.776,6.58,6.437c0.793,0.799,1.453,1.465,1.965,1.981
					c0.458,0.474,0.703,0.744,0.686,0.762c-0.018,0.018-0.296-0.218-0.785-0.66c-0.533-0.494-1.22-1.132-2.046-1.898
					c-1.716-1.614-4.07-3.861-6.654-6.36c-2.583-2.498-4.909-4.775-6.579-6.436c-0.792-0.799-1.453-1.465-1.965-1.981
					C47.854,444.822,47.609,444.551,47.626,444.533z"/>
			</g>
		</g>
		<g>
			<g>
				<path style="fill:#E0E0E0;" d="M66.015,462.071c-0.007-0.024,0.362-0.154,1.035-0.368c0.735-0.23,1.695-0.53,2.851-0.892
					c2.406-0.756,5.725-1.812,9.356-3.082c3.634-1.265,6.893-2.496,9.246-3.404c1.13-0.435,2.069-0.796,2.788-1.073
					c0.66-0.251,1.029-0.379,1.039-0.355c0.01,0.023-0.341,0.195-0.984,0.487c-0.643,0.291-1.58,0.698-2.747,1.181
					c-2.331,0.97-5.581,2.242-9.222,3.509c-3.637,1.272-6.975,2.292-9.402,2.985c-1.215,0.344-2.201,0.612-2.886,0.782
					C66.404,462.011,66.022,462.095,66.015,462.071z"/>
			</g>
		</g>
	</g>
	<g>
		<g>
			<path style="fill:#EBEBEB;" d="M297.803,409.04c4.059-0.151,8.019,1.771,10.911,4.624c2.892,2.853,4.808,6.565,6.139,10.403
				c2.576,7.426,1.979,16.453,0.366,24.146c-8.411-2.335-14.101-10.712-16.72-15.142
				C294.358,426.068,291.127,410.898,297.803,409.04"/>
		</g>
		<g>
			<path style="fill:#EBEBEB;" d="M327.682,456.535c-2.856-3.526-3.292-8.686-1.54-12.873c1.751-4.186,5.469-7.384,9.699-9.026
				c1.956-0.759,4.259-1.186,6.083-0.15c1.706,0.969,2.564,3.049,2.495,5.01c-0.069,1.96-0.926,3.812-1.974,5.47
				C338.851,450.653,334.328,455.496,327.682,456.535"/>
		</g>
		<g>
			<g>
				<path style="fill:#E0E0E0;" d="M328.467,476.19c-0.104,0.021-0.706-1.859-1.411-5.001c-0.353-1.572-0.557-3.527-0.513-5.656
					c0.055-2.122,0.067-4.457,0.446-6.916c0.708-4.91,2.658-9.103,4.636-11.672c0.98-1.297,1.937-2.205,2.613-2.801
					c0.706-0.567,1.12-0.843,1.157-0.798c0.106,0.119-1.469,1.357-3.263,3.961c-1.792,2.588-3.581,6.663-4.272,11.441
					c-0.368,2.369-0.408,4.7-0.506,6.8c-0.085,2.101,0.046,3.96,0.314,5.527C328.209,474.209,328.601,476.163,328.467,476.19z"/>
			</g>
		</g>
		<g>
			<g>
				<path style="fill:#E0E0E0;" d="M301.284,420.375c0.054-0.028,0.538,0.773,1.366,2.247c0.829,1.473,1.999,3.62,3.422,6.286
					c2.844,5.332,6.691,12.742,10.739,21.029c4.047,8.291,7.499,15.899,9.881,21.455c1.191,2.778,2.128,5.037,2.744,6.611
					c0.62,1.573,0.935,2.454,0.88,2.477c-0.056,0.024-0.478-0.811-1.194-2.342c-0.774-1.677-1.783-3.862-2.999-6.494
					c-2.525-5.486-6.061-13.04-10.103-21.322c-4.066-8.182-7.745-15.584-10.501-21.13c-1.286-2.599-2.353-4.757-3.172-6.413
					C301.611,421.258,301.23,420.403,301.284,420.375z"/>
			</g>
		</g>
		<g>
			<path style="fill:#EBEBEB;" d="M320.027,463.53c-6.462-7.055-16.488-10.665-25.964-9.35c-2.413,0.335-5.186,1.345-5.79,3.705
				c-0.605,2.364,1.354,4.591,3.347,5.999c8.294,5.859,20.231,5.97,28.632,0.267"/>
		</g>
		<g>
			<g>
				<path style="fill:#E0E0E0;" d="M299.202,459.13c0-0.061,0.489-0.111,1.376-0.15c0.887-0.051,2.171-0.04,3.759,0.018
					c3.148,0.19,7.634,0.596,12.142,2.62c2.24,1.012,4.196,2.361,5.753,3.816c1.568,1.454,2.669,3.045,3.508,4.404
					c0.792,1.391,1.349,2.559,1.63,3.406c0.306,0.837,0.447,1.306,0.391,1.328c-0.163,0.069-0.851-1.781-2.547-4.403
					c-0.884-1.281-1.997-2.777-3.532-4.14c-1.525-1.364-3.406-2.633-5.564-3.609c-4.337-1.951-8.719-2.458-11.825-2.801
					C301.159,459.333,299.201,459.272,299.202,459.13z"/>
			</g>
		</g>
	</g>
	<g>
		<polygon style="fill:#E0E0E0;" points="73.501,199.301 61.214,173.967 48.868,181.839 29.926,165.555 47.098,190.612 
			59.603,182.578 		"/>
		<polygon style="fill:#E0E0E0;" points="69.824,206.25 52.71,197.895 49.426,207.238 32.547,206.478 52.145,212.646 
			55.447,203.151 		"/>
	</g>
</g>
<g id="Background_Simple" style="display:none;">
	<path style="display:inline;fill:#EBEBEB;" d="M386.255,236.401c-22.661-3.766-46.893,2.773-68.349-5.435
		c-19.061-7.292-32.178-24.932-41.633-43.018c-9.455-18.086-16.462-37.641-28.724-53.954
		c-24.238-32.247-68.056-47.445-107.695-39.956c-39.639,7.489-73.971,36.151-91.203,72.626
		c-17.232,36.475-17.929,79.785-4.815,117.934c13.113,38.15,39.383,71.137,71.8,95.148c31.558,28.58,106.652,52.938,148.286,55.174
		c40.538,2.177,89.888,4.627,125.996-13.929c36.108-18.556,63.672-55.747,64.71-96.331
		C455.664,284.076,426.303,243.057,386.255,236.401z"/>
</g>
<g id="Plant">
	<g>
		<g>
			<g>
				<path style="fill:#263238;" d="M401.489,452.873c-0.006,0.017-0.223-0.031-0.631-0.137c-0.411-0.095-0.999-0.296-1.781-0.464
					c-1.548-0.389-3.823-0.833-6.665-1.066c-2.839-0.238-6.254-0.188-9.971,0.418c-3.714,0.599-7.715,1.811-11.598,3.753
					c-3.866,1.98-7.212,4.488-9.894,7.126c-2.69,2.637-4.753,5.36-6.242,7.788c-1.495,2.427-2.484,4.523-3.087,6.001
					c-0.328,0.729-0.514,1.322-0.681,1.71c-0.156,0.392-0.246,0.595-0.263,0.589c-0.017-0.006,0.04-0.22,0.164-0.623
					c0.135-0.4,0.291-1.006,0.592-1.75c0.548-1.508,1.493-3.644,2.961-6.118c1.462-2.475,3.517-5.252,6.219-7.939
					c2.695-2.688,6.076-5.242,9.996-7.249c3.937-1.969,7.996-3.182,11.757-3.762c3.765-0.587,7.219-0.599,10.079-0.312
					c2.863,0.282,5.144,0.785,6.684,1.237c0.778,0.199,1.359,0.432,1.761,0.56C401.288,452.775,401.495,452.856,401.489,452.873z"/>
			</g>
		</g>
		<g>
			<path style="fill:#E8505B;" d="M398.049,451.335c-3.615,3.98-4.738,10.051-2.785,15.061c0.388,0.996,1.096,2.087,2.165,2.093
				c1.137,0.007,1.854-1.207,2.217-2.284c1.526-4.523,1.061-9.68-1.249-13.857c1.476,3.648,4.062,6.838,7.324,9.037
				c1.242,0.838,2.957,1.518,4.157,0.622c1.156-0.864,1.052-2.636,0.569-3.996c-1.675-4.723-6.753-7.994-11.746-7.566
				c4.48,0.402,9.07-2.33,10.853-6.459c0.685-1.586,0.758-3.84-0.777-4.633c-0.934-0.482-2.074-0.188-3.04,0.224
				c-3.737,1.595-6.699,4.908-7.867,8.799c2.012-4.374,1.072-9.937-2.265-13.407c-1.066-1.109-2.594-2.06-4.072-1.631
				c-1.869,0.543-2.489,2.89-2.433,4.835c0.14,4.837,2.616,9.553,6.518,12.415c-2.492-1.634-5.812-1.922-8.548-0.741
				c-1.798,0.776-3.482,2.749-2.678,4.535c0.77,1.711,3.136,1.859,4.981,1.516c3.337-0.621,6.531-1.996,9.275-3.993"/>
		</g>
		<g>
			<path style="fill:#455A64;" d="M363.634,459.209c5.543,6.992,14.311,11.316,23.233,11.458c-0.147-1.956-1.697-3.493-3.256-4.683
				c-5.579-4.261-12.619-6.573-19.638-6.448"/>
		</g>
		<g>
			<g>
				<path style="fill:#263238;" d="M397.121,461.924c-0.155-0.052,0.779-2.554,0.95-5.792c0.202-3.237-0.438-5.83-0.278-5.864
					c0.115-0.051,1.004,2.556,0.798,5.894C398.412,459.5,397.229,461.988,397.121,461.924z"/>
			</g>
		</g>
		<g>
			<g>
				<path style="fill:#263238;" d="M404.611,457.741c-0.147,0.07-0.978-1.97-2.915-3.772c-1.919-1.804-3.883-2.784-3.796-2.938
					c0.036-0.104,2.145,0.677,4.155,2.56C404.087,455.489,404.74,457.726,404.611,457.741z"/>
			</g>
		</g>
		<g>
			<g>
				<path style="fill:#263238;" d="M404.24,444.637c0.117,0.027-0.534,2.114-2.352,4.041c-1.812,1.96-3.974,2.566-3.988,2.43
					c-0.064-0.143,1.892-0.924,3.61-2.788C403.244,446.488,404.09,444.563,404.24,444.637z"/>
			</g>
		</g>
		<g>
			<path style="fill:#FAFAFA;" d="M397.975,448.82c0.707-0.047,1.424,0.362,1.744,0.995c0.319,0.633,0.223,1.452-0.235,1.994
				c-0.44-0.347-0.938-0.621-1.467-0.807C398.097,450.224,398.11,449.547,397.975,448.82"/>
		</g>
		<g>
			<g>
				<path style="fill:#263238;" d="M392.678,438.213c0.046-0.041,0.638,0.51,1.419,1.554c0.781,1.041,1.716,2.602,2.422,4.47
					c0.701,1.87,1.028,3.66,1.127,4.958c0.101,1.3,0.02,2.105-0.042,2.104c-0.169,0.015-0.173-3.223-1.573-6.879
					C394.674,440.751,392.541,438.314,392.678,438.213z"/>
			</g>
		</g>
	</g>
	<g>
		<g>
			<g>
				<path style="fill:#E8505B;" d="M38.337,440.818c2.142-0.055,4.22,0.983,5.728,2.505c1.508,1.522,2.496,3.492,3.175,5.525
					c1.314,3.932,0.945,8.691,0.048,12.739c-4.422-1.283-7.373-5.735-8.729-8.088C36.418,449.779,34.805,441.758,38.337,440.818"/>
			</g>
		</g>
		<g>
			<g>
				<path style="fill:#E8505B;" d="M53.812,466.051c-1.485-1.877-1.684-4.602-0.735-6.8c0.949-2.198,2.929-3.862,5.171-4.703
					c1.036-0.389,2.253-0.6,3.21-0.043c0.894,0.521,1.334,1.624,1.286,2.658s-0.511,2.005-1.074,2.873
					C59.739,463.015,57.324,465.543,53.812,466.051"/>
			</g>
		</g>
		<g>
			<g>
				<g>
					<path style="fill:#263238;" d="M55.105,479.382c-0.021,0.004-0.104-0.288-0.244-0.819c-0.152-0.586-0.348-1.342-0.584-2.251
						c-0.458-1.895-1.167-4.586-0.941-7.623c0.211-3.023,1.248-5.659,2.406-7.266c0.569-0.812,1.125-1.396,1.541-1.76
						c0.2-0.19,0.38-0.311,0.493-0.402c0.116-0.087,0.18-0.129,0.187-0.121c0.05,0.051-0.968,0.768-2.043,2.401
						c-1.092,1.608-2.074,4.197-2.282,7.169c-0.223,2.975,0.442,5.644,0.848,7.552c0.214,0.958,0.387,1.734,0.492,2.274
						C55.079,479.076,55.124,479.377,55.105,479.382z"/>
				</g>
			</g>
		</g>
		<g>
			<g>
				<g>
					<path style="fill:#263238;" d="M40.105,446.818c0.009-0.005,0.076,0.105,0.194,0.317c0.131,0.242,0.298,0.552,0.505,0.936
						c0.434,0.816,1.046,2.004,1.79,3.478c1.489,2.948,3.489,7.05,5.595,11.629c2.105,4.581,3.917,8.77,5.186,11.819
						c0.635,1.525,1.138,2.763,1.475,3.623c0.157,0.407,0.283,0.736,0.382,0.993c0.084,0.228,0.124,0.35,0.114,0.354
						c-0.01,0.004-0.068-0.11-0.17-0.331c-0.112-0.251-0.256-0.573-0.434-0.971c-0.384-0.881-0.914-2.097-1.562-3.584
						c-1.318-3.027-3.16-7.199-5.264-11.777c-2.105-4.576-4.073-8.689-5.513-11.66c-0.707-1.461-1.285-2.654-1.704-3.519
						c-0.186-0.395-0.337-0.713-0.454-0.962C40.144,446.941,40.096,446.822,40.105,446.818z"/>
				</g>
			</g>
		</g>
		<g>
			<g>
				<path style="fill:#E8505B;" d="M49.427,470.856c-2.818-4.187-7.764-6.857-12.811-6.915c-1.285-0.015-2.811,0.295-3.311,1.478
					c-0.501,1.186,0.346,2.501,1.276,3.392c3.867,3.707,10.085,4.701,14.915,2.386"/>
			</g>
		</g>
		<g>
			<g>
				<g>
					<path style="fill:#263238;" d="M38.774,467.248c0-0.021,0.285-0.026,0.803-0.019c0.259,0.002,0.576,0.006,0.941,0.051
						c0.365,0.045,0.786,0.059,1.24,0.156c0.456,0.083,0.959,0.163,1.483,0.316c0.533,0.123,1.084,0.314,1.663,0.519
						c1.146,0.438,2.37,1.029,3.549,1.821c1.172,0.803,2.176,1.72,3.002,2.629c0.399,0.467,0.78,0.91,1.084,1.365
						c0.332,0.435,0.585,0.876,0.822,1.275c0.252,0.39,0.41,0.782,0.579,1.108c0.17,0.327,0.282,0.623,0.372,0.866
						c0.183,0.484,0.275,0.754,0.256,0.761c-0.063,0.026-0.438-1.06-1.389-2.627c-0.246-0.386-0.506-0.815-0.841-1.237
						c-0.308-0.442-0.69-0.871-1.088-1.326c-0.824-0.883-1.815-1.776-2.966-2.565c-1.158-0.778-2.356-1.366-3.479-1.811
						c-0.567-0.208-1.107-0.406-1.63-0.537c-0.514-0.162-1.008-0.252-1.456-0.347C39.918,467.305,38.771,467.314,38.774,467.248z"/>
				</g>
			</g>
		</g>
	</g>
</g>
<g id="Poster">
	<g>
		<g>
			<polygon style="fill:#455A64;" points="323.766,480.071 350.946,480.071 389.944,291.29 363.876,285.905 			"/>
		</g>
		<g>
			<polygon style="fill:#263238;" points="440.83,420.263 276.633,386.344 271.978,382.167 289.34,324.827 296.959,325.326 
				285.206,319.074 291.934,285.563 456.132,319.482 460.786,323.658 453.978,356.618 440.974,356.856 448.128,358.228 
				452.782,362.404 			"/>
		</g>
		<g>
			<polygon style="fill:#455A64;" points="436.176,416.087 271.978,382.167 284.686,320.651 292.305,321.15 285.949,314.536 
				291.934,285.563 456.132,319.482 449.323,352.442 436.32,352.68 448.128,358.228 			"/>
		</g>
		<g>
			<g>
				<path style="fill:#263238;" d="M439.834,352.345c-0.001,0.01-0.134,0.008-0.394-0.006c-0.292-0.02-0.671-0.046-1.15-0.079
					c-1.05-0.086-2.531-0.208-4.42-0.363c-0.963-0.084-2.029-0.176-3.194-0.277c-1.166-0.137-2.43-0.286-3.786-0.446
					c-2.714-0.341-5.815-0.664-9.214-1.221c-1.703-0.26-3.487-0.531-5.345-0.814c-1.857-0.292-3.777-0.663-5.772-1.011
					c-3.994-0.674-8.229-1.565-12.693-2.463c-8.908-1.892-18.654-4.186-28.835-6.777c-20.355-5.239-38.694-10.278-52.067-13.542
					c-3.335-0.85-6.37-1.542-9.028-2.18c-2.656-0.647-4.953-1.163-6.833-1.578c-1.847-0.422-3.295-0.753-4.321-0.987
					c-0.467-0.113-0.837-0.203-1.121-0.272c-0.252-0.065-0.38-0.103-0.378-0.113c0.002-0.01,0.134,0.007,0.39,0.052
					c0.287,0.054,0.661,0.124,1.133,0.212c1.032,0.208,2.489,0.501,4.346,0.875c1.888,0.379,4.194,0.862,6.859,1.478
					c2.667,0.607,5.71,1.27,9.053,2.093c13.406,3.159,31.771,8.133,52.115,13.37c10.176,2.589,19.909,4.898,28.801,6.818
					c4.456,0.912,8.682,1.82,12.667,2.516c1.99,0.358,3.906,0.741,5.759,1.045c1.853,0.296,3.632,0.581,5.332,0.852
					c3.391,0.584,6.484,0.936,9.191,1.309c1.353,0.178,2.613,0.343,3.777,0.496c1.161,0.12,2.224,0.23,3.185,0.33
					c1.883,0.204,3.36,0.364,4.407,0.477c0.477,0.058,0.855,0.104,1.145,0.139C439.703,352.311,439.834,352.334,439.834,352.345z"/>
			</g>
		</g>
		<g>
			<g>
				<path style="fill:#263238;" d="M448.075,347.086c-0.007,0.008-0.13-0.073-0.366-0.239c-0.258-0.187-0.601-0.435-1.036-0.749
					c-0.916-0.65-2.214-1.681-3.966-2.896c-3.492-2.444-8.645-5.857-15.374-9.437c-6.725-3.573-15.057-7.252-24.67-10.261
					c-9.628-2.923-20.534-5.205-32.137-5.926c-11.606-0.845-22.687,0.288-32.781,0.517c-5.049,0.137-9.861,0.085-14.345-0.293
					c-4.486-0.353-8.629-1.036-12.37-1.82c-7.488-1.588-13.321-3.745-17.257-5.391c-1.97-0.827-3.472-1.532-4.48-2.03
					c-0.479-0.242-0.857-0.433-1.142-0.577c-0.256-0.133-0.384-0.206-0.379-0.215c0.005-0.009,0.142,0.045,0.407,0.159
					c0.291,0.13,0.677,0.302,1.167,0.521c1.023,0.461,2.538,1.13,4.517,1.921c3.954,1.575,9.788,3.661,17.255,5.188
					c3.73,0.753,7.857,1.408,12.322,1.737c4.462,0.354,9.253,0.388,14.289,0.235c10.065-0.259,21.168-1.413,32.837-0.564
					c11.655,0.724,22.608,3.033,32.265,5.998c9.643,3.051,17.987,6.785,24.707,10.418c6.723,3.64,11.853,7.117,15.309,9.625
					c1.733,1.247,3.01,2.31,3.903,2.992c0.42,0.335,0.75,0.599,0.999,0.798C447.971,346.98,448.082,347.077,448.075,347.086z"/>
			</g>
		</g>
		<g>
			<g>
				<path style="fill:#263238;" d="M368.709,302.951c0.006,0.02-0.26,0.114-0.771,0.273c-0.573,0.17-1.319,0.392-2.247,0.668
					c-0.975,0.293-2.175,0.629-3.586,0.951c-1.408,0.33-3.002,0.755-4.795,1.078c-1.785,0.362-3.744,0.745-5.866,1.043
					c-2.112,0.364-4.39,0.596-6.784,0.871c-4.797,0.45-10.095,0.713-15.657,0.61c-5.563-0.141-10.846-0.635-15.619-1.296
					c-2.38-0.38-4.646-0.712-6.74-1.168c-2.107-0.391-4.047-0.86-5.815-1.3c-1.777-0.401-3.351-0.896-4.743-1.287
					c-1.395-0.383-2.579-0.771-3.54-1.107c-0.915-0.316-1.65-0.57-2.215-0.766c-0.504-0.181-0.765-0.286-0.759-0.306
					c0.007-0.02,0.281,0.046,0.797,0.189c0.573,0.167,1.319,0.385,2.247,0.656c0.971,0.3,2.162,0.654,3.562,1.005
					c1.397,0.359,2.974,0.823,4.752,1.196c1.768,0.411,3.707,0.854,5.81,1.222c2.091,0.433,4.351,0.744,6.722,1.108
					c4.757,0.627,10.016,1.102,15.554,1.243c5.536,0.102,10.81-0.142,15.59-0.559c2.385-0.259,4.656-0.471,6.763-0.812
					c2.117-0.275,4.073-0.633,5.858-0.966c1.792-0.295,3.388-0.689,4.8-0.986c1.414-0.289,2.62-0.591,3.603-0.848
					c0.939-0.23,1.694-0.415,2.274-0.556C368.426,302.985,368.703,302.931,368.709,302.951z"/>
			</g>
		</g>
		<g>
			<g>
				<path style="fill:#263238;" d="M325.04,361.665c0,0,0.258,0.139,0.744,0.437c0.502,0.309,1.219,0.752,2.155,1.329
					c1.901,1.155,4.677,2.911,8.404,4.895c3.722,1.957,8.419,4.252,14.274,5.536c1.459,0.302,2.993,0.588,4.571,0.699
					c1.557,0.083,3.287-0.046,4.623-1.01c0.658-0.476,1.153-1.179,1.378-1.981c0.223-0.804,0.213-1.685,0.001-2.527
					c-0.401-1.713-1.667-3.131-3.149-4.236c-12.518-8.296-30.152-14.349-50.107-14.91c-2.488-0.074-5.02-0.077-7.558,0.024
					c-2.492,0.119-5.155,0.68-6.87,2.581c-0.852,0.911-1.365,2.126-1.306,3.375c0.027,1.25,0.618,2.439,1.403,3.459
					c1.608,2.066,3.923,3.497,6.154,5.038c8.968,6.099,18.534,12.157,29.256,16.358c10.674,4.179,22.103,6.086,32.832,4.495
					c2.677-0.375,5.288-1.029,7.805-1.838c2.484-0.841,4.889-2.07,6.473-4.082c1.594-1.996,2.285-4.571,2.303-7.069
					c0.02-2.512-0.569-4.995-1.62-7.214c-2.114-4.481-5.727-7.962-9.655-10.495c-3.954-2.552-8.285-4.176-12.53-5.411
					c-4.256-1.231-8.46-2.106-12.48-3.028c-4.023-0.91-7.884-1.783-11.57-2.616c-14.727-3.346-26.647-6.055-34.908-7.933
					c-4.105-0.947-7.297-1.682-9.484-2.187c-1.069-0.253-1.889-0.448-2.463-0.584c-0.554-0.135-0.835-0.219-0.835-0.219
					s0.29,0.043,0.848,0.158c0.577,0.122,1.401,0.297,2.476,0.524c2.193,0.479,5.393,1.177,9.509,2.075
					c8.271,1.832,20.205,4.476,34.95,7.743c3.689,0.821,7.553,1.682,11.579,2.578c4.022,0.91,8.231,1.773,12.518,3.001
					c4.273,1.232,8.656,2.86,12.68,5.445c3.993,2.565,7.692,6.105,9.873,10.707c1.088,2.29,1.702,4.852,1.685,7.46
					c-0.016,2.593-0.729,5.301-2.42,7.426c-1.688,2.145-4.208,3.42-6.739,4.28c-2.561,0.826-5.197,1.488-7.908,1.87
					c-10.859,1.618-22.392-0.309-33.143-4.518c-10.795-4.231-20.394-10.319-29.371-16.433c-2.217-1.538-4.585-2.989-6.285-5.171
					c-0.829-1.079-1.491-2.386-1.522-3.803c-0.067-1.406,0.528-2.796,1.463-3.787c0.923-1.012,2.132-1.715,3.399-2.121
					c1.269-0.412,2.583-0.568,3.87-0.641c2.574-0.099,5.103-0.092,7.608-0.014c20.064,0.602,37.746,6.707,50.349,15.128
					c1.515,1.136,2.864,2.642,3.288,4.483c0.222,0.901,0.233,1.852-0.016,2.735c-0.25,0.883-0.808,1.667-1.532,2.184
					c-1.477,1.049-3.282,1.15-4.875,1.063c-1.62-0.122-3.148-0.417-4.624-0.731c-5.898-1.327-10.599-3.667-14.314-5.66
					c-3.719-2.021-6.476-3.812-8.357-5c-0.922-0.599-1.628-1.059-2.123-1.38C325.275,361.839,325.04,361.665,325.04,361.665z"/>
			</g>
		</g>
		<g>
			<g>
				<path style="fill:#263238;" d="M444.89,372.332c-0.006,0.02-0.338-0.048-0.961-0.196c-0.618-0.171-1.545-0.35-2.742-0.551
					c-2.394-0.384-5.939-0.565-10.233,0.076c-4.287,0.648-9.276,2.176-14.45,4.66c-5.186,2.471-10.508,5.919-16.068,9.561
					c-5.562,3.644-10.935,7.073-16.204,9.494c-5.254,2.434-10.332,3.872-14.683,4.407c-4.358,0.529-7.939,0.212-10.33-0.294
					c-1.197-0.263-2.115-0.5-2.721-0.722c-0.612-0.2-0.929-0.314-0.922-0.334c0.007-0.02,0.337,0.055,0.957,0.216
					c0.614,0.184,1.537,0.381,2.73,0.607c2.385,0.431,5.928,0.676,10.23,0.099c4.296-0.584,9.306-2.049,14.501-4.49
					c5.208-2.427,10.547-5.852,16.107-9.495c5.56-3.642,10.914-7.093,16.16-9.558c5.232-2.478,10.287-3.979,14.63-4.579
					c4.349-0.594,7.933-0.342,10.334,0.117c1.202,0.24,2.125,0.457,2.735,0.667C444.577,372.204,444.896,372.312,444.89,372.332z"/>
			</g>
		</g>
		<g>
			<g>
				<path style="fill:#263238;" d="M441.852,388.609c-0.023,0.063-0.786-0.254-2.226-0.578c-1.433-0.322-3.583-0.577-6.189-0.206
					c-2.61,0.346-5.607,1.353-8.823,2.726c-3.231,1.336-6.598,3.2-10.077,5.268c-3.482,2.064-6.8,4.066-9.983,5.595
					c-3.175,1.54-6.2,2.593-8.81,3.172c-2.615,0.576-4.793,0.686-6.283,0.621c-0.746-0.034-1.323-0.083-1.711-0.149
					c-0.389-0.055-0.591-0.093-0.588-0.114c0.006-0.063,0.824,0.042,2.302,0.025c1.476-0.009,3.617-0.184,6.182-0.805
					c2.562-0.625,5.53-1.705,8.661-3.258c3.137-1.541,6.43-3.547,9.919-5.615c3.482-2.071,6.895-3.941,10.171-5.262
					c3.246-1.353,6.31-2.338,8.985-2.635c2.671-0.324,4.866,0.005,6.3,0.403c0.72,0.207,1.269,0.391,1.628,0.553
					C441.674,388.502,441.86,388.589,441.852,388.609z"/>
			</g>
		</g>
		<g>
			<g>
				<path style="fill:#263238;" d="M388.946,305.753c-0.036,0.165-6.331-1.077-14.057-2.774c-7.729-1.698-13.964-3.207-13.927-3.372
					c0.036-0.165,6.329,1.077,14.059,2.775C382.746,304.078,388.982,305.588,388.946,305.753z"/>
			</g>
		</g>
		<g>
			<path style="fill:#FFFFFF;" d="M343.51,343.688l-5.141-1.119l-1.443,6.625l-9.543-2.078l1.443-6.624l-18.291-3.984l1.389-6.378
				l20.227-18.223l10.135,2.207l-18.492,17.152l7.018,1.529l1.281-5.883l9.246,2.013l-1.28,5.883l5.141,1.119L343.51,343.688z"/>
			<path style="fill:#FFFFFF;" d="M347.818,333.443c2.487-11.42,10.345-16.596,19.195-14.668c8.799,1.915,13.795,9.89,11.308,21.31
				c-2.487,11.42-10.345,16.596-19.144,14.68C350.326,352.837,345.331,344.863,347.818,333.443z M368.482,337.942
				c1.583-7.267-0.1-10.482-3.213-11.159c-3.164-0.689-6.031,1.534-7.614,8.801c-1.583,7.268,0.101,10.482,3.265,11.171
				C364.033,347.434,366.9,345.209,368.482,337.942z"/>
			<path style="fill:#FFFFFF;" d="M411.991,358.601l-5.141-1.119l-1.443,6.624l-9.542-2.077l1.443-6.625l-18.291-3.983l1.389-6.378
				l20.227-18.223l10.135,2.207l-18.493,17.152l7.02,1.528l1.28-5.883l9.245,2.013l-1.28,5.883l5.141,1.12L411.991,358.601z"/>
		</g>
		<g>
			<path style="fill:#FFFFFF;" d="M336.19,368.233l-0.507,2.162l-10.416-2.442l3.257-13.887l10.138,2.377l-0.507,2.162l-7.558-1.772
				l-0.846,3.612l6.704,1.571l-0.498,2.122l-6.705-1.571l-0.898,3.829L336.19,368.233z"/>
			<path style="fill:#FFFFFF;" d="M347.649,373.201l-1.883-4.733c-0.185-0.022-0.364-0.064-0.54-0.106l-3.136-0.735l-0.949,4.047
				l-2.579-0.603l3.256-13.888l5.714,1.34c3.65,0.856,5.475,3.251,4.754,6.326c-0.493,2.104-1.928,3.399-3.984,3.692l2.123,5.311
				L347.649,373.201z M346.901,360.676l-3.016-0.707l-1.299,5.536l3.016,0.707c2.262,0.53,3.674-0.227,4.084-1.973
				C350.096,362.493,349.163,361.206,346.901,360.676z"/>
			<path style="fill:#FFFFFF;" d="M362.155,376.601l-1.883-4.732c-0.185-0.023-0.361-0.064-0.54-0.107l-3.134-0.734l-0.95,4.048
				l-2.58-0.606l3.256-13.887l5.714,1.339c3.651,0.856,5.475,3.251,4.754,6.326c-0.493,2.104-1.928,3.4-3.984,3.692l2.123,5.312
				L362.155,376.601z M361.408,364.077l-3.016-0.708l-1.298,5.536l3.016,0.708c2.261,0.53,3.674-0.228,4.084-1.974
				C364.603,365.893,363.669,364.607,361.408,364.077z"/>
			<path style="fill:#FFFFFF;" d="M368.21,370.695c0.962-4.106,4.847-6.398,9.153-5.389c4.305,1.009,6.773,4.769,5.806,8.895
				c-0.968,4.127-4.85,6.399-9.155,5.39C369.709,378.582,367.247,374.801,368.21,370.695z M380.571,373.592
				c0.664-2.837-0.939-5.369-3.737-6.024c-2.798-0.656-5.36,0.899-6.024,3.736c-0.665,2.838,0.938,5.369,3.736,6.025
				C377.343,377.985,379.905,376.43,380.571,373.592z"/>
			<path style="fill:#FFFFFF;" d="M393.37,383.919l-1.883-4.733c-0.184-0.022-0.362-0.064-0.541-0.106l-3.134-0.735l-0.95,4.048
				l-2.579-0.604l3.256-13.888l5.714,1.34c3.651,0.856,5.476,3.251,4.754,6.326c-0.493,2.104-1.927,3.399-3.984,3.692l2.124,5.311
				L393.37,383.919z M392.623,371.394l-3.017-0.707l-1.298,5.536l3.017,0.707c2.261,0.53,3.674-0.227,4.083-1.973
				C395.817,373.211,394.884,371.924,392.623,371.394z"/>
		</g>
	</g>
</g>
<g id="Ballon">
	<g>
		<g>
			<g>
				<path style="fill:#263238;" d="M348.661,143.241c0.004-0.008,0.131,0.057,0.374,0.19c0.263,0.148,0.619,0.349,1.074,0.605
					c0.91,0.583,2.273,1.435,3.835,2.783c3.114,2.636,7.274,7.232,9.846,14.204c1.255,3.47,2.071,7.491,2.105,11.839
					c0.04,4.341-0.693,9.001-2.37,13.592c-1.676,4.58-4.273,9.13-7.962,12.984c-1.837,1.924-3.946,3.669-6.31,5.084
					c-2.357,1.429-4.982,2.479-7.718,3.17c-5.501,1.376-11.081,1.321-16.349,0.947c-5.282-0.393-10.337-1.081-15.177-1.299
					c-4.831-0.234-9.466,0.02-13.625,1.114c-4.159,1.051-7.827,2.872-10.575,5.269c-2.781,2.364-4.53,5.299-5.383,8.059
					c-0.889,2.757-0.989,5.32-0.687,7.329c0.31,2.018,0.934,3.507,1.463,4.44c0.531,0.934,0.878,1.39,0.85,1.408
					c0,0-0.376-0.431-0.942-1.357c-0.563-0.925-1.227-2.419-1.572-4.461c-0.338-2.033-0.267-4.638,0.609-7.448
					c0.838-2.809,2.603-5.825,5.419-8.249c2.781-2.458,6.502-4.327,10.708-5.409c4.207-1.126,8.896-1.398,13.754-1.175
					c4.869,0.206,9.932,0.885,15.192,1.27c5.243,0.366,10.772,0.412,16.185-0.943c2.694-0.68,5.266-1.708,7.579-3.109
					c2.321-1.388,4.396-3.1,6.208-4.993c3.638-3.79,6.212-8.276,7.88-12.796c1.67-4.531,2.41-9.133,2.389-13.425
					c-0.015-4.298-0.8-8.276-2.019-11.716c-2.5-6.914-6.578-11.509-9.632-14.176c-1.532-1.363-2.869-2.237-3.758-2.847
					c-0.442-0.274-0.788-0.489-1.044-0.648C348.775,143.329,348.657,143.249,348.661,143.241z"/>
			</g>
		</g>
		<g>
			<g>
				<path style="fill:#F5F5F5;" d="M279.485,16.984c2.592,7.535,5.21,15.197,5.573,23.157c0.363,7.96-1.834,16.403-7.615,21.888
					c-6.704,6.361-16.638,7.571-25.836,8.46c6.616,0.234,13.862,1.796,17.826,7.099c4.541,6.076,3.061,14.752-0.043,21.674
					c-3.104,6.921-7.652,13.365-8.898,20.847c10.473-6.627,24.592-7.005,35.405-0.949c10.813,6.057,17.865,18.294,17.685,30.686
					c5.685-10.729,15.45-19.503,27.139-22.792c11.688-3.29,25.171-0.603,33.907,7.83c-6.794-9.799-9.436-22.381-7.159-34.086
					c2.277-11.704,9.445-22.378,19.417-28.915c-5.319,4.417-13.639,3.886-19.295-0.09c-5.656-3.976-8.882-10.707-10.083-17.515
					c-1.201-6.808-0.607-13.79-0.009-20.678c-5.985,7.79-18.429,9.556-26.345,3.739c-8.124-5.97-10.174-17.039-11.601-27.019
					c0.74,9.775-6.755,19.492-16.398,21.259c-9.642,1.767-20.096-4.66-22.871-14.062"/>
			</g>
			<g>
				<path style="fill:#E8505B;" d="M343.682,137.574c-0.711,4.704,0.594,9.526,2.055,14.053c0.278,0.862,0.611,1.74,1.244,2.387
					c0.633,0.648,1.641,1.01,2.47,0.647c0.786-0.344,1.195-1.205,1.475-2.016c0.603-1.749,0.913-3.598,0.913-5.448
					c1.488,1.106,3.096,2.257,4.947,2.346c1.852,0.089,3.889-1.426,3.601-3.257c-0.163-1.036-0.979-1.828-1.75-2.54
					c-3.298-3.043-6.595-6.087-9.893-9.13C348.746,134.616,343.301,137.798,343.682,137.574"/>
			</g>
			<g>
				<path style="fill:#E8505B;" d="M290.882,42.396c0,0-26.312,19.424-18.265,50.472l2.654,0.333l9.293-9.618l12.791,17.778
					l-1.771-18.13l5.473,3.96l9.391-19.619c0,0-13.955-10.029-11.961-19.792C298.487,47.778,290.264,47.325,290.882,42.396z"/>
			</g>
			<g>
				<path style="fill:#E8505B;" d="M280.642,107.974c0,0,1.228,11.707,11.392,21.261l15.62-9.403
					C307.654,119.832,287.322,116.128,280.642,107.974z"/>
			</g>
			<g>
				<path style="fill:#E8505B;" d="M313.372,128.76c0,0,7.211,11.608,25.522,10.981c12.988-0.445,21.382-17.003,18.143-32.833
					l-10.6,8.023l-3.93-2.557l0.018,8.354c0,0-4.268,6.172-9.782,2.688C332.745,123.416,327.943,133.623,313.372,128.76z"/>
			</g>
			<g>
				<path style="fill:#E8505B;" d="M320.12,39.055c-0.615,0.266,12.51,15.732,12.624,24.976c0,0,4.323-8.451,13.16-8.814
					c0,0,0.32-7.319,7.449-5.789C353.353,49.427,338.122,31.285,320.12,39.055z"/>
			</g>
			<g>
				<path style="fill:#E8505B;" d="M362.81,69.307c0,0,6.207,10.906,5.96,22.004c0,0-8.949-9.214-16.179-2.731l-1.812-4.375
					c0,0,4.269-0.851,4.248-5.976c-0.021-5.125-5.071-8.175-5.071-8.175S359.792,78.255,362.81,69.307z"/>
			</g>
			<g>
				<g>
					<path style="fill:#263238;" d="M309.292,96.089c0.034,0.14-11.403,3.014-25.54,6.42c-14.143,3.406-25.631,6.054-25.665,5.914
						s11.4-3.014,25.543-6.42C297.767,98.596,309.258,95.949,309.292,96.089z"/>
				</g>
			</g>
			<g>
				<g>
					<path style="fill:#263238;" d="M312.292,78.007c-0.049,0.135-6.207-1.97-13.751-4.703c-7.548-2.733-13.624-5.058-13.575-5.193
						c0.049-0.135,6.205,1.97,13.753,4.703C306.263,75.547,312.341,77.872,312.292,78.007z"/>
				</g>
			</g>
			<g>
				<g>
					<path style="fill:#263238;" d="M303.283,10.524c0.136-0.047,4.93,13.459,10.705,30.162
						c5.778,16.709,10.35,30.289,10.214,30.336c-0.136,0.047-4.928-13.456-10.706-30.166
						C307.721,24.153,303.147,10.571,303.283,10.524z"/>
				</g>
			</g>
			<g>
				<g>
					<path style="fill:#263238;" d="M341.378,49.331c0.068,0.005,0.054,1.139-0.086,2.966c-0.14,1.826-0.421,4.344-0.878,7.103
						c-0.459,2.759-1.006,5.233-1.464,7.007c-0.458,1.774-0.811,2.852-0.877,2.834c-0.073-0.019,0.154-1.128,0.518-2.917
						c0.365-1.789,0.853-4.263,1.31-7.009c0.455-2.746,0.793-5.244,1.026-7.055C341.16,50.448,341.303,49.325,341.378,49.331z"/>
				</g>
			</g>
			<g>
				<g>
					<path style="fill:#263238;" d="M379.496,51.233c0.072,0.124-8.678,5.365-19.541,11.705
						c-10.867,6.342-19.733,11.38-19.806,11.256c-0.073-0.124,8.676-5.364,19.543-11.706
						C370.556,56.148,379.423,51.108,379.496,51.233z"/>
				</g>
			</g>
			<g>
				<g>
					<path style="fill:#263238;" d="M379.601,99.87c-0.005,0.036-0.522-0.003-1.453-0.105c-0.931-0.1-2.275-0.268-3.933-0.493
						c-3.317-0.449-7.889-1.139-12.921-2.011c-5.033-0.873-9.572-1.763-12.846-2.457c-1.637-0.347-2.959-0.641-3.869-0.86
						c-0.91-0.218-1.41-0.355-1.403-0.391c0.007-0.035,0.521,0.035,1.444,0.192c1.017,0.182,2.327,0.416,3.9,0.698
						c3.387,0.607,7.888,1.413,12.864,2.305c4.984,0.836,9.493,1.591,12.887,2.16c1.576,0.265,2.888,0.485,3.907,0.656
						C379.099,99.727,379.606,99.834,379.601,99.87z"/>
				</g>
			</g>
			<g>
				<g>
					<path style="fill:#263238;" d="M365.142,143.055c-0.107,0.096-7.73-8.209-17.026-18.548
						c-9.298-10.342-16.747-18.802-16.64-18.898c0.107-0.096,7.729,8.207,17.027,18.55
						C357.798,134.497,365.248,142.959,365.142,143.055z"/>
				</g>
			</g>
			<g>
				<g>
					<path style="fill:#263238;" d="M304.507,139.342c-0.033-0.014,0.1-0.421,0.369-1.145c0.268-0.724,0.677-1.764,1.196-3.043
						c1.038-2.558,2.53-6.068,4.26-9.908c1.732-3.841,3.374-7.283,4.603-9.755c0.614-1.236,1.123-2.23,1.488-2.911
						c0.364-0.681,0.581-1.05,0.613-1.034c0.032,0.016-0.123,0.415-0.431,1.122c-0.36,0.803-0.808,1.8-1.338,2.981
						c-1.19,2.616-2.743,6.032-4.461,9.811c-1.693,3.788-3.224,7.214-4.396,9.838c-0.534,1.179-0.985,2.175-1.348,2.977
						C304.736,138.975,304.54,139.356,304.507,139.342z"/>
				</g>
			</g>
			<g>
				<g>
					<path style="fill:#263238;" d="M312.259,88.978c-0.012-0.088,0.799-0.169,1.982-0.65c1.174-0.468,2.722-1.427,3.851-2.998
						c1.126-1.574,1.537-3.347,1.603-4.61c0.075-1.275-0.108-2.068-0.021-2.086c0.051-0.018,0.37,0.759,0.389,2.095
						c0.028,1.318-0.345,3.222-1.548,4.904c-1.206,1.678-2.889,2.643-4.147,3.04C313.097,89.085,312.259,89.032,312.259,88.978z"/>
				</g>
			</g>
			<g>
				<g>
					<path style="fill:#263238;" d="M320.553,103.201c-0.081-0.045,0.352-0.715,0.579-1.928c0.237-1.187,0.172-2.989-0.805-4.575
						c-0.988-1.58-2.575-2.437-3.743-2.752c-1.187-0.334-1.981-0.243-1.984-0.336c-0.014-0.048,0.787-0.279,2.072-0.021
						c1.258,0.239,3.014,1.103,4.099,2.835c1.07,1.74,1.066,3.697,0.722,4.93C321.152,102.619,320.589,103.235,320.553,103.201z"/>
				</g>
			</g>
			<g>
				<g>
					<path style="fill:#263238;" d="M340.049,94.716c-0.03,0.084-0.881-0.244-2.312-0.412c-1.419-0.174-3.457-0.108-5.489,0.698
						c-2.033,0.808-3.56,2.158-4.473,3.259c-0.926,1.104-1.32,1.927-1.399,1.886c-0.051-0.019,0.228-0.91,1.111-2.114
						c0.867-1.196,2.43-2.664,4.569-3.514c2.139-0.849,4.283-0.854,5.734-0.579C339.259,94.21,340.073,94.668,340.049,94.716z"/>
				</g>
			</g>
			<g>
				<g>
					<path style="fill:#263238;" d="M339.517,88.878c-0.004,0.056-0.701,0.059-1.715-0.382c-1.001-0.426-2.302-1.392-3.07-2.928
						c-0.763-1.539-0.747-3.16-0.483-4.215c0.26-1.075,0.683-1.628,0.73-1.598c0.079,0.037-0.215,0.637-0.368,1.667
						c-0.159,1.016-0.11,2.506,0.588,3.914c0.702,1.405,1.86,2.344,2.767,2.83C338.879,88.665,339.535,88.793,339.517,88.878z"/>
				</g>
			</g>
			<g>
				<g>
					<path style="fill:#263238;" d="M333.616,76.298c0.037,0.056-0.433,0.48-1.282,1.065c-0.842,0.563-2.129,1.353-3.78,1.47
						c-1.687,0.091-3.08-0.828-3.652-1.736c-0.597-0.943-0.392-1.679-0.353-1.65c0.099-0.012,0.052,0.668,0.653,1.437
						c0.573,0.749,1.85,1.512,3.321,1.43c1.488-0.1,2.741-0.785,3.619-1.263C333.023,76.554,333.573,76.234,333.616,76.298z"/>
				</g>
			</g>
			<g style="opacity:0.3;">
				<g>
					<path d="M343.543,138.849c2.134-1.056,3.987-2.128,5.772-3.704l1.854,1.708c-2.523,1.807-5.444,3.51-7.563,5.777
						C343.554,142.653,343.397,140.054,343.543,138.849"/>
				</g>
			</g>
			<g>
				<g>
					<path style="fill:#263238;" d="M349.865,134.54c0.11,0.072-0.984,1.658-2.95,2.924c-1.957,1.281-3.851,1.634-3.872,1.504
						c-0.046-0.15,1.713-0.711,3.588-1.941C348.518,135.816,349.747,134.437,349.865,134.54z"/>
				</g>
			</g>
			<g>
				<g>
					<path style="fill:#FAFAFA;" d="M345.866,134.786c0.015,0.033-0.366,0.223-1.07,0.541c-0.35,0.165-0.785,0.352-1.307,0.522
						c-0.52,0.176-1.104,0.408-1.778,0.568c-1.329,0.388-2.957,0.693-4.78,0.879c-1.826,0.151-3.849,0.163-5.954-0.07
						c-2.103-0.257-4.07-0.733-5.813-1.299c-1.732-0.6-3.246-1.27-4.451-1.953c-0.619-0.31-1.134-0.67-1.6-0.961
						c-0.469-0.286-0.849-0.567-1.152-0.808c-0.613-0.471-0.939-0.744-0.917-0.772c0.062-0.086,1.409,0.969,3.841,2.215
						c1.211,0.633,2.716,1.257,4.428,1.822c1.722,0.532,3.657,0.985,5.724,1.238c2.069,0.228,4.055,0.231,5.854,0.109
						c1.795-0.157,3.404-0.419,4.728-0.757C344.272,135.406,345.825,134.688,345.866,134.786z"/>
				</g>
			</g>
			<g>
				<g>
					<path style="fill:#FAFAFA;" d="M346.452,151.25c-0.121,0.058-0.965-1.614-1.344-3.871c-0.391-2.256-0.147-4.112-0.014-4.098
						c0.154,0.007,0.147,1.823,0.527,4.01C345.987,149.481,346.595,151.193,346.452,151.25z"/>
				</g>
			</g>
			<g>
				<g>
					<path style="fill:#FAFAFA;" d="M290.677,124.675c-0.044,0.048-0.72-0.468-1.699-1.43c-0.98-0.96-2.243-2.385-3.445-4.105
						c-1.199-1.723-2.099-3.402-2.66-4.653c-0.563-1.252-0.814-2.064-0.753-2.089c0.149-0.066,1.461,3.054,3.841,6.444
						C288.316,122.247,290.79,124.558,290.677,124.675z"/>
				</g>
			</g>
			<g>
				<g>
					<path style="fill:#FAFAFA;" d="M281.287,57.784c0.08,0.052-0.927,1.552-2.257,4.133c-1.333,2.576-2.905,6.286-3.979,10.581
						c-1.061,4.3-1.408,8.314-1.436,11.214c-0.032,2.903,0.156,4.699,0.061,4.708c-0.036,0.004-0.108-0.442-0.207-1.253
						c-0.11-0.81-0.191-1.992-0.221-3.455c-0.067-2.923,0.224-6.992,1.298-11.341c1.086-4.344,2.732-8.077,4.159-10.628
						c0.711-1.278,1.336-2.285,1.812-2.95C280.985,58.124,281.257,57.764,281.287,57.784z"/>
				</g>
			</g>
			<g>
				<g>
					<path style="fill:#FAFAFA;" d="M288.652,49.102c0.091,0.111-0.535,0.776-1.399,1.484c-0.864,0.709-1.639,1.193-1.73,1.082
						c-0.091-0.111,0.535-0.776,1.4-1.485C287.786,49.476,288.561,48.991,288.652,49.102z"/>
				</g>
			</g>
		</g>
		<g>
			<g>
				<path style="fill:#263238;" d="M309.087,294.644c0,0,0.26,0.169,0.565,0.66c0.301,0.482,0.613,1.323,0.529,2.424
					c-0.07,1.101-0.651,2.395-1.707,3.53c-1.053,1.133-2.492,2.206-4.284,2.976c-1.782,0.771-3.946,1.217-6.241,0.97
					c-2.281-0.256-4.672-1.221-6.596-2.977c-1.936-1.748-3.213-4.342-3.571-7.131c-0.392-2.793,0.097-5.769,1.266-8.493
					c1.161-2.739,2.855-5.125,4.672-7.224c1.817-2.101,3.718-3.973,5.244-5.98c1.538-1.99,2.67-4.137,3.132-6.32
					c0.48-2.174,0.422-4.299,0.007-6.146c-0.835-3.739-2.979-6.208-4.559-7.586c-1.627-1.389-2.749-1.852-2.713-1.91
					c0,0,1.152,0.394,2.844,1.755c1.641,1.35,3.88,3.827,4.787,7.659c0.449,1.891,0.532,4.074,0.056,6.32
					c-0.456,2.257-1.618,4.489-3.172,6.519c-1.543,2.05-3.447,3.938-5.239,6.022c-1.789,2.077-3.447,4.424-4.579,7.094
					c-1.139,2.657-1.611,5.527-1.24,8.222c0.34,2.692,1.552,5.168,3.391,6.846c1.831,1.689,4.126,2.637,6.32,2.901
					c2.206,0.256,4.307-0.152,6.049-0.88c3.48-1.465,5.777-4.043,5.933-6.186c0.111-1.052-0.155-1.87-0.419-2.354
					C309.295,294.864,309.065,294.664,309.087,294.644z"/>
			</g>
		</g>
	</g>
</g>
<g id="Monster">
	<g>
		<g>
			<g>
				<g>
					<path style="fill:#E8505B;" d="M106.553,427.798c2.935-13.704,19.729-113.206,19.729-113.206s-12.113,1.914-14.554,6.254
						c-2.683,4.77-15.74,78.086-17.185,102.951c-1.198-0.076-2.396-0.087-3.593,0.017c-3.009,0.262-6.052,1.306-8.172,3.459
						c-2.543,2.582-3.426,6.67-2.176,10.072c0.665,1.809,1.924,3.361,3.492,4.479c-0.196,2.13,0.483,4.732,2.16,5.83
						c1.917,1.256,4.613,1.181,6.458-0.178c0.407,1.289,1.601,2.292,2.941,2.471c1.34,0.179,2.755-0.477,3.486-1.613
						c0.8,1.852,3.419,2.032,5.314,1.339c3.538-1.294,6.174-4.612,6.954-8.298c0.78-3.686-0.201-7.641-2.342-10.742
						C108.344,429.589,107.492,428.648,106.553,427.798z"/>
				</g>
				<g>
					<g style="opacity:0.3;">
						<g>
							<path d="M108.988,413.533c-7.159-12.588-10.803-25.979-5.381-45.466c3.882-13.951,11.622-28.218,18.739-40.829"/>
						</g>
					</g>
					<g>
						<g>
							<g>
								<path style="fill:#263238;" d="M105.079,440.271c-0.026-0.046,0.395-0.195,0.886-0.759c0.471-0.542,1.007-1.622,0.719-2.909
									c-0.28-1.259-1.541-2.573-3.258-2.815c-1.713-0.258-3.691,0.579-4.927,2.179c-1.265,1.595-1.781,3.573-1.854,5.33
									c-0.052,1.775,0.328,3.372,0.865,4.603c1.096,2.497,2.619,3.471,2.521,3.554c-0.011,0.014-0.103-0.04-0.268-0.159
									c-0.166-0.118-0.411-0.295-0.686-0.57c-0.563-0.53-1.301-1.409-1.902-2.674c-0.6-1.257-1.037-2.909-1.009-4.768
									c0.05-1.841,0.571-3.93,1.927-5.641c1.328-1.722,3.505-2.645,5.405-2.328c1.921,0.303,3.276,1.788,3.546,3.209
									c0.271,1.459-0.383,2.589-0.93,3.127c-0.281,0.281-0.549,0.438-0.734,0.528
									C105.189,440.259,105.085,440.286,105.079,440.271z"/>
							</g>
						</g>
						<g>
							<g>
								<path style="fill:#263238;" d="M82.932,441.155c0.032-0.042,0.345,0.211,0.981,0.533c0.631,0.324,1.605,0.702,2.866,0.816
									c1.247,0.106,2.8-0.052,4.264-0.831c0.721-0.39,1.438-0.914,1.965-1.619c0.54-0.696,0.805-1.591,0.663-2.512
									c-0.278-1.688-1.348-3.131-2.424-4.198c-1.108-1.077-2.369-1.773-3.505-2.179l-0.609-0.218l0.621-0.158
									c2.908-0.737,4.504-1.816,4.552-1.716c0.018,0.03-0.358,0.32-1.105,0.736c-0.747,0.413-1.874,0.946-3.348,1.359l0.013-0.375
									c1.197,0.385,2.535,1.083,3.715,2.198c0.593,0.551,1.139,1.207,1.606,1.948c0.463,0.739,0.863,1.583,0.999,2.531
									c0.168,1.038-0.16,2.128-0.772,2.89c-0.597,0.783-1.371,1.33-2.15,1.737c-1.58,0.81-3.225,0.931-4.526,0.772
									c-1.315-0.168-2.307-0.618-2.925-1.006c-0.31-0.196-0.538-0.364-0.679-0.497C82.99,441.242,82.92,441.169,82.932,441.155z"
									/>
							</g>
						</g>
						<g>
							<g>
								<path style="fill:#263238;" d="M92.05,441.334c0.165,0.052-0.43,1.491-0.197,3.279c0.243,1.784,1.126,3.062,0.975,3.149
									c-0.074,0.084-1.211-1.113-1.491-3.082C91.091,442.696,91.961,441.259,92.05,441.334z"/>
							</g>
						</g>
						<g>
							<g>
								<path style="fill:#263238;" d="M99.42,434.306c-0.087,0-0.012-0.556-0.463-1.214c-0.221-0.321-0.57-0.653-1.034-0.855
									c-0.46-0.203-1.044-0.254-1.629-0.136c-1.196,0.238-2.035,1.076-2.541,1.709c-0.511,0.648-0.767,1.111-0.839,1.074
									c-0.057-0.026,0.079-0.547,0.539-1.288c0.448-0.715,1.345-1.724,2.738-2.005c0.68-0.137,1.379-0.065,1.934,0.211
									c0.554,0.274,0.933,0.7,1.147,1.1C99.708,433.735,99.468,434.338,99.42,434.306z"/>
							</g>
						</g>
						<g style="opacity:0.3;">
							<g>
								<path d="M88.229,430.855c1.608-0.44,3.437,0.057,4.602,1.249c1.099-1.162,2.428-2.233,4.011-2.467
									c1.583-0.233,3.417,0.664,3.732,2.233c1.143-0.519,2.534-0.453,3.624,0.171s1.85,1.79,1.981,3.039
									c-1.725-1.837-4.815-2.186-6.907-0.781c0.028-0.99-0.739-1.902-1.685-2.196c-0.946-0.295-2.007-0.039-2.826,0.519
									c-0.819,0.558-1.418,1.389-1.865,2.274c-1.065-1.875-2.824-3.345-4.858-4.062"/>
							</g>
						</g>
					</g>
				</g>
			</g>
			<g>
				<g>
					<path style="fill:#FFFFFF;" d="M84.752,440.605c-0.024,0.046-0.837-0.357-1.795-1.435c-0.952-1.056-1.983-2.883-2.148-5.107
						c-0.159-2.225,0.598-4.182,1.387-5.365c0.792-1.205,1.538-1.722,1.569-1.68c0.065,0.063-0.575,0.667-1.254,1.87
						c-0.679,1.185-1.332,3.048-1.183,5.136c0.154,2.087,1.07,3.837,1.913,4.91C84.087,440.027,84.808,440.533,84.752,440.605z"/>
				</g>
			</g>
		</g>
		<g>
			<g>
				<path style="fill:#E8505B;" d="M301.612,245.25c-0.662-1.906-2.458-3.821-4.399-3.269c0.418-1.285,0.03-2.796-0.956-3.721
					c-0.986-0.924-2.519-1.214-3.774-0.714c-0.114-2.289-1.762-4.424-3.948-5.114c-1.911-0.604-4.356,0.516-5.881,2.015
					c-1.858-0.507-3.856-0.5-5.678,0.13c-3.426,1.184-6.033,4.454-6.424,8.057c-0.326,3.003,0.79,6.021,2.491,8.517
					c1.457,2.138,3.326,3.949,5.237,5.701c-10.297,48.086-63.066,56.45-63.066,56.45l4.943,19.362
					c50.573-12.499,64.505-52.811,68.295-71.75c0.444,0.002,0.889-0.012,1.333-0.048c3.755-0.303,7.439-2.046,9.801-4.982
					C301.946,252.949,302.848,248.809,301.612,245.25z"/>
			</g>
			<g>
				<g>
					<path style="fill:#263238;" d="M294.726,251.682c0.016-0.005,0.061,0.093,0.118,0.292c0.047,0.2,0.095,0.507,0.055,0.902
						c-0.071,0.764-0.532,1.985-1.833,2.698c-1.271,0.69-3.279,0.58-4.728-0.716c-1.448-1.271-2.109-3.541-1.617-5.659
						c0.468-2.132,1.756-3.858,3.15-5.061c1.421-1.198,2.977-1.905,4.331-2.235c1.36-0.334,2.507-0.319,3.274-0.218
						c0.387,0.039,0.679,0.116,0.875,0.171c0.197,0.053,0.297,0.09,0.293,0.107c-0.002,0.128-1.72-0.435-4.347,0.296
						c-1.293,0.363-2.77,1.078-4.112,2.242c-1.315,1.168-2.52,2.819-2.955,4.807c-0.457,1.969,0.146,4.03,1.43,5.194
						c1.274,1.177,3.089,1.322,4.241,0.742c1.179-0.591,1.676-1.689,1.798-2.397C294.825,252.111,294.674,251.691,294.726,251.682z"
						/>
				</g>
			</g>
			<g>
				<g>
					<path style="fill:#263238;" d="M281.4,233.971c0.004-0.018,0.104-0.009,0.293,0.023c0.192,0.024,0.466,0.095,0.814,0.211
						c0.691,0.233,1.667,0.717,2.629,1.629c0.946,0.907,1.892,2.257,2.265,3.993c0.178,0.861,0.243,1.807,0.015,2.764
						c-0.204,0.956-0.84,1.9-1.75,2.426c-0.82,0.494-1.727,0.719-2.592,0.828c-0.869,0.107-1.723,0.099-2.525-0.012
						c-1.61-0.209-2.997-0.803-4.053-1.486l0.283-0.247c0.613,1.403,0.913,2.613,1.066,3.452c0.15,0.842,0.164,1.317,0.129,1.322
						c-0.108,0.026-0.282-1.893-1.551-4.611l-0.271-0.581l0.554,0.333c1.033,0.622,2.369,1.159,3.905,1.336
						c1.507,0.159,3.302,0.075,4.785-0.778c0.803-0.473,1.328-1.244,1.526-2.103c0.212-0.854,0.165-1.741,0.01-2.546
						c-0.322-1.627-1.183-2.93-2.054-3.828c-0.886-0.903-1.795-1.419-2.445-1.703C281.781,234.104,281.387,234.022,281.4,233.971z"
						/>
				</g>
			</g>
			<g>
				<g>
					<path style="fill:#263238;" d="M287.306,240.92c-0.114-0.023,0.449-1.605,2.14-2.669c1.702-1.029,3.348-0.906,3.33-0.795
						c0.029,0.172-1.52,0.297-3.055,1.237C288.189,239.644,287.451,241.015,287.306,240.92z"/>
				</g>
			</g>
			<g>
				<g>
					<path style="fill:#263238;" d="M286.527,251.074c0.055,0.017-0.26,0.584-1.181,0.775c-0.445,0.087-1.015,0.063-1.578-0.192
						c-0.565-0.255-1.063-0.75-1.387-1.364c-0.663-1.256-0.45-2.589-0.179-3.389c0.283-0.826,0.6-1.26,0.657-1.233
						c0.073,0.033-0.123,0.524-0.301,1.329c-0.17,0.792-0.288,1.973,0.284,3.049c0.278,0.527,0.687,0.947,1.135,1.175
						c0.45,0.231,0.928,0.291,1.316,0.259C286.089,251.416,286.471,251.006,286.527,251.074z"/>
				</g>
			</g>
			<g style="opacity:0.3;">
				<g>
					<path d="M276.774,244.59c0.677,1.523,2.218,2.626,3.879,2.773c-0.205,1.587-0.193,3.293,0.627,4.667
						c0.82,1.373,2.676,2.226,4.09,1.478c0.322,1.214,1.252,2.249,2.424,2.698c1.173,0.449,2.557,0.3,3.607-0.388
						c-2.514-0.174-4.739-2.346-4.974-4.855c-0.749,0.648-1.94,0.631-2.767,0.085c-0.827-0.546-1.3-1.529-1.385-2.516
						c-0.086-0.987,0.179-1.977,0.581-2.883c-2.126,0.361-4.377-0.07-6.219-1.192"/>
				</g>
			</g>
		</g>
		<g>
			<g>
				<g>
					<path style="fill:#E8505B;" d="M147.664,431.713c3.173,13.481,6.347,26.963,9.52,40.444c-4.885-0.712-9.997,0.242-14.297,2.666
						c-1.497,0.844-3.084,2.521-2.278,4.039c0.634,1.194,2.278,1.293,3.629,1.234c10.526-0.459,21.052,0.435,31.578-0.024
						l-0.579-41.012"/>
				</g>
				<g>
					<path style="fill:#E8505B;" d="M204.703,431.713c-3.173,13.481-6.346,26.963-9.52,40.444c4.885-0.712,9.997,0.242,14.298,2.666
						c1.497,0.844,3.084,2.521,2.278,4.039c-0.634,1.194-2.278,1.293-3.629,1.234c-10.526-0.459-21.052,0.435-31.578-0.024
						l0.579-41.012"/>
				</g>
				<g style="opacity:0.3;">
					<path d="M149.881,441.131l1.31,5.349c8.602,0.466,16.942,1.77,24.157,0.176l-0.069-4.719c0,0-8.901-0.467-14-1.803l0,0
						l2.333,4.268C158.934,443.829,154.359,442.732,149.881,441.131z"/>
				</g>
				<g style="opacity:0.3;">
					<path d="M177.02,446.58c0,0,8.481,2.297,16.656,0.884c6.927-1.197,7.894-2.445,7.894-2.445l2.134-9.068
						c0,0-9.588,5.473-24.471,2.52l7.773,3.227l-9.916-0.013L177.02,446.58z"/>
				</g>
			</g>
			<g>
				<path style="fill:#E8505B;" d="M243.194,379.837c-3.33-6.711-7.493-13.007-12.347-18.714c-0.009-0.024-0.017-0.047-0.026-0.071
					c2.624,0.538,5.315,0.744,7.989,0.591c-4.687-3.47-8.674-7.867-11.725-12.836c-4.081-15.087-8.464-30.25-8.553-45.665
					l-91.749-0.715c-2.769,19.752-6.354,35.006-12.685,54.042c-6.331,19.037-13.475,41.614-0.851,60.221
					c2.262,3.335,5.192,6.116,8.543,8.502c3.933,4.159,8.147,8.052,12.615,11.63c-0.761-1.95-1.523-3.899-2.285-5.849
					c0.519,0.235,1.039,0.468,1.564,0.694c8.921,7.23,19.883,11.925,31.28,13.352c-0.565-1.357-1.13-2.714-1.694-4.071
					c13.136,2.286,26.492,1.592,38.415-4.026c22.278-10.498,33.972-22.927,36.76-39.236c1.411-8.253-0.185-15.675-2.663-23.091
					C238.254,376.343,240.724,378.09,243.194,379.837z"/>
			</g>
			<g>
				<g>
					<path style="fill:#263238;" d="M212.907,384.372c-0.003,0.016-0.13,0.003-0.371-0.036c-0.24-0.043-0.598-0.095-1.051-0.203
						c-0.91-0.199-2.222-0.555-3.808-1.147c-3.162-1.165-7.445-3.44-11.276-7.258l0.421-0.274c0.438,1.124,0.894,2.297,1.36,3.494
						c0.842,2.18,1.654,4.281,2.403,6.222l0.573,1.484l-0.997-1.237c-2.862-3.548-5.338-6.619-7.164-8.883
						c-0.831-1.06-1.513-1.93-2.038-2.599c-0.467-0.612-0.71-0.952-0.688-0.97c0.023-0.018,0.309,0.286,0.817,0.864
						c0.553,0.645,1.272,1.484,2.149,2.507c1.862,2.233,4.388,5.264,7.307,8.765l-0.424,0.248c-0.756-1.938-1.575-4.037-2.425-6.214
						c-0.464-1.197-0.918-2.371-1.353-3.496l-0.442-1.141l0.863,0.867c3.753,3.77,7.937,6.068,11.035,7.306
						c1.553,0.628,2.84,1.031,3.731,1.284C212.422,384.207,212.915,384.336,212.907,384.372z"/>
				</g>
			</g>
			<g>
				<g>
					<path style="fill:#263238;" d="M133.647,366.215c-0.056,0.024-0.515-0.859-1.03-2.38c-0.517-1.518-1.044-3.691-1.248-6.139
						c-0.198-2.449-0.031-4.679,0.232-6.261c0.261-1.585,0.57-2.53,0.629-2.516c0.081,0.018-0.1,0.988-0.264,2.564
						c-0.167,1.575-0.272,3.765-0.078,6.17c0.2,2.404,0.66,4.547,1.081,6.074C133.387,365.256,133.723,366.184,133.647,366.215z"/>
				</g>
			</g>
			<g>
				<g>
					<path style="fill:#263238;" d="M136.717,358.396c-0.062,0.019-0.345-0.656-0.631-1.801c-0.287-1.143-0.548-2.765-0.575-4.57
						c-0.024-1.806,0.19-3.434,0.444-4.585c0.253-1.153,0.517-1.835,0.579-1.818c0.16,0.036-0.568,2.853-0.502,6.396
						C136.067,355.56,136.875,358.355,136.717,358.396z"/>
				</g>
			</g>
			<g>
				<g>
					<path style="fill:#263238;" d="M169.308,417.132c-0.004,0.017-0.194-0.018-0.552-0.101c-0.356-0.089-0.888-0.2-1.557-0.401
						c-1.346-0.374-3.275-1.007-5.589-1.981c-4.621-1.922-10.775-5.451-16.298-10.921l0.393-0.339
						c0.202,0.286,0.42,0.593,0.638,0.903c2.054,2.986,3.526,6.165,4.477,9.175l0.189,0.6l-0.542-0.314
						c-4.795-2.778-7.88-6.53-9.586-9.345c-0.864-1.416-1.423-2.61-1.767-3.44c-0.177-0.413-0.284-0.743-0.364-0.962
						c-0.076-0.221-0.11-0.337-0.097-0.342c0.03-0.012,0.227,0.431,0.607,1.239c0.387,0.805,0.984,1.967,1.874,3.346
						c1.759,2.741,4.85,6.387,9.575,9.082l-0.353,0.286c-0.958-2.962-2.419-6.087-4.442-9.029c-0.215-0.305-0.43-0.608-0.628-0.889
						l0.393-0.339c5.463,5.418,11.522,8.964,16.076,10.959c2.28,1.01,4.18,1.692,5.503,2.123c0.658,0.23,1.179,0.371,1.526,0.492
						C169.132,417.047,169.313,417.115,169.308,417.132z"/>
				</g>
			</g>
			<g>
				<g>
					<path style="fill:#263238;" d="M122.346,324.063c0.009,0.001,0.008,0.081-0.002,0.235c-0.016,0.185-0.034,0.41-0.057,0.685
						c-0.049,0.603-0.156,1.487-0.312,2.625c-0.315,2.274-0.912,5.547-1.884,9.536c-0.974,3.988-2.338,8.684-3.97,13.855
						c-1.624,5.173-3.489,10.833-5.185,16.846c-1.689,6.014-3.02,11.829-3.722,17.189c-0.701,5.359-0.704,10.257-0.233,14.313
						c0.483,4.058,1.389,7.262,2.194,9.399c0.411,1.067,0.743,1.89,1.005,2.434c0.109,0.253,0.199,0.46,0.273,0.63
						c0.059,0.143,0.085,0.219,0.077,0.223c-0.008,0.004-0.05-0.063-0.125-0.199c-0.087-0.165-0.192-0.365-0.32-0.609
						c-0.292-0.531-0.657-1.345-1.099-2.407c-0.867-2.127-1.837-5.342-2.37-9.427c-0.522-4.083-0.557-9.02,0.123-14.418
						c0.68-5.399,2.003-11.239,3.697-17.27c1.701-6.029,3.581-11.688,5.229-16.85c1.656-5.159,3.053-9.833,4.07-13.8
						c1.015-3.967,1.665-7.219,2.041-9.478c0.186-1.13,0.325-2.009,0.408-2.606c0.044-0.272,0.079-0.495,0.109-0.678
						C122.319,324.14,122.337,324.062,122.346,324.063z"/>
				</g>
			</g>
			<g>
				<g>
					<path style="fill:#FFFFFF;" d="M126.252,421.738c-0.012,0.014-0.234-0.17-0.648-0.533c-0.398-0.378-1.053-0.871-1.76-1.644
						c-1.492-1.466-3.45-3.812-5.385-7.024c-1.947-3.204-3.724-7.347-4.972-12.146c-1.238-4.799-1.885-10.257-1.75-15.975
						c0.175-5.718,1.003-11.12,2.062-15.947c1.057-4.832,2.299-9.109,3.41-12.674c1.114-3.565,2.087-6.425,2.77-8.397
						c0.336-0.949,0.603-1.703,0.802-2.266c0.189-0.516,0.297-0.784,0.314-0.779c0.017,0.006-0.057,0.285-0.214,0.812
						c-0.176,0.57-0.412,1.335-0.71,2.296c-0.624,1.991-1.544,4.867-2.61,8.441c-1.065,3.573-2.267,7.85-3.294,12.667
						c-1.028,4.813-1.836,10.185-2.01,15.861c-0.134,5.67,0.493,11.081,1.694,15.843c1.211,4.761,2.936,8.878,4.824,12.077
						c1.876,3.207,3.775,5.57,5.214,7.07c0.68,0.79,1.31,1.304,1.684,1.706C126.064,421.514,126.264,421.725,126.252,421.738z"/>
				</g>
			</g>
			<g>
				<g>
					<path style="fill:#FFFFFF;" d="M135.626,424.811c-0.093,0.11-2.255-1.562-4.828-3.733c-2.575-2.172-4.586-4.022-4.493-4.132
						c0.093-0.11,2.254,1.561,4.829,3.734C133.707,422.852,135.719,424.701,135.626,424.811z"/>
				</g>
			</g>
		</g>
		<g>
			<g>
				<g>
					<g>
						<path style="fill:#455A64;" d="M99.365,144.061c-0.746,0.187-19.227,8.73-15.744,33.242
							c3.05,21.471,15.744,21.955,15.744,21.955l23.682-20.699c0,0-17.187-1.826-21.631-14.359
							C96.91,151.492,99.365,144.061,99.365,144.061z"/>
					</g>
					<g>
						<g>
							<path style="fill:#263238;" d="M109.722,173.766c0.006,0.103-1.712,0.068-4.367,0.705c-2.637,0.618-6.221,2.071-9.346,4.816
								c-3.126,2.747-5.028,6.114-5.981,8.65c-0.973,2.55-1.16,4.259-1.261,4.239c-0.031-0.004-0.011-0.431,0.106-1.195
								c0.115-0.764,0.36-1.86,0.81-3.171c0.879-2.61,2.775-6.096,5.983-8.915c3.207-2.817,6.907-4.249,9.609-4.784
								c1.358-0.278,2.477-0.379,3.249-0.395C109.296,173.7,109.722,173.736,109.722,173.766z"/>
						</g>
					</g>
					<g>
						<g>
							<path style="fill:#263238;" d="M102.666,166.008c-0.011,0.097-1.386-0.155-3.596,0.02c-2.193,0.162-5.251,0.884-8.078,2.725
								c-2.827,1.843-4.723,4.35-5.757,6.29c-1.053,1.951-1.377,3.311-1.471,3.281c-0.031-0.008,0.02-0.353,0.184-0.961
								c0.163-0.608,0.465-1.473,0.96-2.489c0.97-2.025,2.878-4.653,5.799-6.557c2.921-1.903,6.095-2.586,8.34-2.656
								c1.13-0.042,2.043,0.031,2.665,0.128C102.335,165.883,102.671,165.976,102.666,166.008z"/>
						</g>
					</g>
					<g>
						<g>
							<path style="fill:#263238;" d="M84.624,161.652c-0.03-0.014,0.039-0.255,0.219-0.671c0.182-0.415,0.49-1,0.97-1.661
								c0.932-1.335,2.747-2.867,5.123-3.672c2.438-0.84,4.813-0.296,6.285,0.338c0.75,0.325,1.312,0.679,1.671,0.959
								c0.361,0.276,0.53,0.465,0.511,0.489c-0.055,0.077-0.832-0.564-2.317-1.106c-1.455-0.528-3.717-0.972-5.976-0.189
								c-2.283,0.777-4.028,2.175-5.004,3.407C85.107,160.771,84.707,161.695,84.624,161.652z"/>
						</g>
					</g>
					<g>
						<g>
							<path style="fill:#FAFAFA;" d="M94.756,148.34c0.031,0.033-0.476,0.531-1.343,1.47c-0.869,0.937-2.06,2.359-3.326,4.256
								c-2.539,3.751-5.202,9.71-5.535,16.685c-0.326,6.978,1.765,13.161,3.939,17.135c1.082,2.008,2.133,3.536,2.91,4.55
								c0.774,1.017,1.232,1.56,1.198,1.59c-0.013,0.012-0.142-0.111-0.374-0.357c-0.225-0.252-0.585-0.602-0.983-1.107
								c-0.831-0.982-1.938-2.491-3.074-4.499c-2.281-3.971-4.468-10.238-4.136-17.336c0.339-7.095,3.106-13.128,5.751-16.867
								c1.32-1.892,2.565-3.291,3.484-4.19c0.444-0.465,0.835-0.78,1.083-1.01C94.604,148.437,94.743,148.327,94.756,148.34z"/>
						</g>
					</g>
				</g>
				<g>
					<g>
						<path style="fill:#455A64;" d="M239.608,146.168c0.746,0.186,19.227,8.73,15.744,33.242
							c-3.05,21.471-15.744,21.955-15.744,21.955l-23.682-20.699c0,0,17.187-1.826,21.631-14.359
							C242.062,153.599,239.608,146.168,239.608,146.168z"/>
					</g>
					<g>
						<g>
							<path style="fill:#263238;" d="M229.25,175.873c0-0.031,0.426-0.067,1.199-0.049c0.772,0.016,1.891,0.117,3.249,0.395
								c2.702,0.535,6.402,1.967,9.609,4.784c3.208,2.818,5.104,6.304,5.983,8.915c0.45,1.311,0.694,2.408,0.809,3.171
								c0.117,0.764,0.137,1.191,0.106,1.195c-0.101,0.02-0.288-1.689-1.261-4.239c-0.953-2.536-2.855-5.903-5.981-8.65
								c-3.125-2.745-6.709-4.198-9.347-4.816C230.962,175.941,229.244,175.976,229.25,175.873z"/>
						</g>
					</g>
					<g>
						<g>
							<path style="fill:#263238;" d="M236.793,168.192c-0.005-0.032,0.324-0.123,0.934-0.22c0.609-0.097,1.504-0.179,2.613-0.142
								c2.207,0.047,5.318,0.798,8.129,2.732c2.838,1.905,4.686,4.492,5.629,6.482c0.481,0.998,0.774,1.848,0.934,2.444
								c0.159,0.597,0.209,0.935,0.178,0.943c-0.092,0.029-0.414-1.303-1.439-3.219c-1.007-1.906-2.846-4.374-5.592-6.218
								c-2.732-1.877-5.707-2.655-7.86-2.797C238.153,168.038,236.803,168.291,236.793,168.192z"/>
						</g>
					</g>
					<g>
						<g>
							<path style="fill:#263238;" d="M254.349,163.759c-0.084,0.043-0.483-0.881-1.48-2.106c-0.976-1.231-2.721-2.629-5.004-3.407
								c-2.259-0.782-4.522-0.339-5.977,0.189c-1.485,0.542-2.262,1.183-2.317,1.106c-0.019-0.024,0.149-0.213,0.511-0.489
								c0.358-0.28,0.92-0.634,1.67-0.959c1.472-0.634,3.847-1.178,6.285-0.338c2.375,0.805,4.191,2.337,5.122,3.672
								c0.48,0.661,0.788,1.246,0.97,1.661C254.31,163.504,254.379,163.745,254.349,163.759z"/>
						</g>
					</g>
					<g>
						<g>
							<path style="fill:#FAFAFA;" d="M241.278,148.392c0.034-0.011,0.179,0.395,0.413,1.143c0.124,0.372,0.258,0.832,0.36,1.38
								c0.109,0.545,0.269,1.162,0.334,1.861c0.095,0.696,0.188,1.459,0.202,2.286c0.063,0.825,0.014,1.707-0.015,2.636
								c-0.132,1.852-0.448,3.88-1.043,5.943c-0.621,2.056-1.458,3.931-2.354,5.558c-0.48,0.796-0.918,1.563-1.419,2.222
								c-0.461,0.686-0.954,1.277-1.411,1.809c-0.435,0.552-0.905,0.982-1.292,1.381c-0.383,0.405-0.746,0.718-1.052,0.963
								c-0.602,0.501-0.945,0.763-0.967,0.735c-0.073-0.083,1.283-1.165,3.028-3.314c0.433-0.54,0.901-1.134,1.339-1.82
								c0.478-0.658,0.894-1.421,1.355-2.208c0.857-1.611,1.664-3.455,2.274-5.473c0.584-2.025,0.908-4.011,1.064-5.829
								c0.041-0.911,0.107-1.778,0.063-2.59c0.005-0.814-0.066-1.567-0.136-2.255C241.722,150.068,241.172,148.421,241.278,148.392z
								"/>
						</g>
					</g>
				</g>
				<g>
					<path style="fill:#E8505B;" d="M154.863,160.309c0,0-3.126,0.893-1.786-11.611l10.718,11.626c0,0-4.353-7.16-5.526-13.412
						c0,0,13.542,12.533,18.243,13.412c4.701,0.879,36.855,2.666,55.613,18.743c18.757,16.077,27.254,31.659,29.3,48.528
						c3.314,27.322-1.611,50.617-14.562,66.248l-0.447-4.466c0,0-13.845,20.097-34.835,25.903c-20.99,5.806-83.067,0-83.067,0
						s-34.835-9.379-46.893-36.621c-12.058-27.242-5.359-31.262-5.359-31.262l-5.191,4.903c0,0-1.357-39.215,33.774-66.98
						C132.533,163.436,154.863,160.309,154.863,160.309z"/>
				</g>
				<g>
					<g>
						<path style="fill:#263238;" d="M222.422,310.824c0.003,0.007-0.075,0.054-0.233,0.14c-0.181,0.095-0.414,0.216-0.707,0.37
							c-0.627,0.315-1.545,0.801-2.759,1.376c-2.422,1.159-5.981,2.783-10.557,4.492c-4.581,1.673-10.18,3.516-16.693,4.616
							c-3.246,0.587-6.725,0.943-10.362,0.989c-3.635,0.046-7.441-0.238-11.276-1.06l0.201-0.459
							c2.78,1.941,5.691,3.974,8.663,6.049l1.056,0.737l-1.259-0.27c-0.735-0.157-1.528-0.327-2.324-0.497
							c-7.221-1.551-14.171-3.043-20.638-4.431l0.231-0.413c1.663,1.749,3.278,3.448,4.841,5.092l0.555,0.584l-0.782-0.191
							c-11.356-2.769-20.483-6.715-26.66-9.875c-3.095-1.581-5.473-2.954-7.079-3.923c-0.805-0.482-1.409-0.876-1.82-1.135
							c-0.188-0.123-0.339-0.221-0.462-0.302c-0.103-0.069-0.153-0.108-0.149-0.113c0.003-0.006,0.061,0.021,0.17,0.08
							c0.128,0.072,0.285,0.159,0.481,0.269c0.448,0.258,1.066,0.615,1.857,1.071c1.628,0.927,4.025,2.259,7.13,3.799
							c6.199,3.079,15.321,6.951,26.643,9.669l-0.227,0.393c-1.568-1.639-3.188-3.333-4.857-5.077l-0.555-0.581l0.786,0.168
							c6.468,1.38,13.42,2.864,20.643,4.405c0.796,0.17,1.589,0.34,2.324,0.498l-0.204,0.468c-2.97-2.078-5.879-4.113-8.657-6.057
							l-1.039-0.727l1.24,0.268c3.789,0.818,7.557,1.107,11.161,1.073c3.607-0.035,7.063-0.375,10.293-0.944
							c6.48-1.063,12.07-2.862,16.654-4.487c4.579-1.662,8.153-3.235,10.596-4.342c1.195-0.554,2.129-0.987,2.794-1.296
							c0.301-0.136,0.54-0.244,0.727-0.328C222.332,310.85,222.418,310.817,222.422,310.824z"/>
					</g>
				</g>
				<g style="opacity:0.3;">
					<g>
						<path d="M222.422,310.824c-16.867,8.447-35.949,14.295-52.533,10.672c2.887,2.018,5.773,4.036,8.66,6.053
							c-7.655-1.639-15.309-3.277-22.964-4.916c1.616,1.695,3.233,3.39,4.849,5.085c-12.774-3.078-25.053-8.203-36.226-15.118
							c0,0,18.257,19.077,39.406,20.095C198.46,334.375,222.422,310.824,222.422,310.824z"/>
					</g>
				</g>
				<g>
					<g>
						<path style="fill:#263238;" d="M105.751,283.943c-0.009,0.015-0.222-0.106-0.62-0.35c-0.39-0.255-0.997-0.589-1.712-1.116
							c-1.465-1.002-3.496-2.6-5.747-4.853c-2.254-2.247-4.67-5.211-6.811-8.852c-2.146-3.631-3.958-7.966-5.032-12.732l0.514-0.064
							c0.004,0.119,0.008,0.247,0.012,0.376c0.159,5.354,0.309,10.427,0.442,14.934l0.036,1.207l-0.487-1.104
							c-2.468-5.591-3.467-10.71-3.851-14.299c-0.194-1.8-0.249-3.23-0.259-4.206c-0.007-0.488,0.007-0.863,0.013-1.116
							c0.008-0.253,0.019-0.384,0.032-0.384c0.013,0,0.028,0.131,0.045,0.383c0.016,0.295,0.036,0.662,0.06,1.112
							c0.058,0.971,0.157,2.392,0.39,4.177c0.462,3.56,1.519,8.62,4.001,14.14l-0.451,0.104c-0.148-4.507-0.315-9.579-0.491-14.933
							c-0.004-0.129-0.008-0.258-0.012-0.376l0.515-0.064c1.061,4.707,2.837,8.996,4.937,12.603c2.095,3.615,4.458,6.575,6.66,8.836
							c2.199,2.267,4.181,3.898,5.603,4.946c0.694,0.549,1.28,0.909,1.651,1.192C105.566,283.777,105.761,283.928,105.751,283.943z"
							/>
					</g>
				</g>
				<g>
					<g>
						<path style="fill:#263238;" d="M244.068,259.174c-0.013-0.012,0.094-0.174,0.31-0.469c0.254-0.336,0.572-0.756,0.96-1.27
							c0.388-0.569,0.789-1.317,1.299-2.151c0.209-0.447,0.43-0.922,0.664-1.422c0.117-0.252,0.238-0.511,0.361-0.776
							c0.102-0.276,0.206-0.558,0.312-0.847c1.81-4.598,2.894-11.448,2.839-18.99c-0.016-1.069-0.038-2.129-0.108-3.153l-0.138-2.01
							l0.641,1.906c0.661,1.966,1.297,3.857,1.897,5.64l-0.462-0.008c0.92-2.473,1.279-4.941,1.234-7.132
							c-0.018-2.198-0.412-4.116-0.876-5.652c-0.957-3.083-2.13-4.641-2.037-4.688c0.012-0.008,0.085,0.086,0.216,0.275
							c0.126,0.192,0.331,0.467,0.549,0.852c0.45,0.761,1.042,1.921,1.561,3.469c0.513,1.547,0.952,3.493,1.003,5.735
							c0.078,2.236-0.262,4.768-1.19,7.314l-0.237,0.651l-0.225-0.659c-0.607-1.78-1.252-3.668-1.922-5.631l0.503-0.103
							c0.074,1.049,0.097,2.109,0.113,3.189c0.056,7.594-1.095,14.504-3.017,19.128c-0.114,0.29-0.225,0.573-0.333,0.85
							c-0.131,0.266-0.258,0.526-0.383,0.779c-0.249,0.501-0.486,0.975-0.708,1.422c-0.541,0.833-0.973,1.572-1.39,2.13
							c-0.423,0.493-0.768,0.897-1.045,1.22C244.214,259.048,244.081,259.186,244.068,259.174z"/>
					</g>
				</g>
				<g>
					<g>
						<path style="fill:#263238;" d="M199.799,184.848c0,0.018-0.24,0.025-0.696,0.022c-0.455-0.012-1.13,0.006-1.994-0.059
							c-1.731-0.084-4.235-0.342-7.281-0.953c-6.068-1.185-14.374-4.148-21.972-9.934l0.343-0.39
							c0.054,0.055,0.113,0.114,0.172,0.174c3.274,3.335,6.395,6.512,9.24,9.411l0.549,0.559l-0.765-0.153
							c-3.099-0.622-5.832-1.775-8.038-3.151c-2.228-1.352-3.942-2.9-5.225-4.284c-1.281-1.392-2.135-2.629-2.669-3.499
							c-0.273-0.432-0.447-0.787-0.576-1.018c-0.124-0.234-0.182-0.359-0.171-0.366c0.029-0.016,0.315,0.453,0.877,1.299
							c0.572,0.838,1.456,2.036,2.751,3.383c1.298,1.339,3.012,2.836,5.221,4.139c2.187,1.327,4.881,2.433,7.918,3.023l-0.216,0.405
							c-2.854-2.889-5.984-6.058-9.269-9.383c-0.059-0.06-0.117-0.119-0.172-0.174l0.343-0.39
							c7.522,5.729,15.722,8.719,21.732,9.989c3.016,0.653,5.5,0.965,7.22,1.111c0.859,0.096,1.53,0.11,1.983,0.156
							C199.561,184.803,199.799,184.831,199.799,184.848z"/>
					</g>
				</g>
				<g>
					<g>
						<path style="fill:#FAFAFA;" d="M133.707,171.911c0.003,0.008-0.078,0.044-0.237,0.106c-0.189,0.069-0.423,0.155-0.712,0.261
							c-0.623,0.236-1.564,0.518-2.74,0.982c-2.372,0.869-5.759,2.263-9.778,4.318c-8.025,4.059-18.525,11.251-27.324,21.892
							c-8.81,10.638-13.91,22.3-16.395,30.943c-1.267,4.333-2.002,7.921-2.412,10.413c-0.237,1.242-0.337,2.219-0.452,2.875
							c-0.05,0.303-0.09,0.549-0.123,0.748c-0.031,0.168-0.051,0.254-0.06,0.253c-0.009-0.001-0.006-0.089,0.007-0.259
							c0.019-0.2,0.043-0.448,0.072-0.755c0.082-0.661,0.15-1.644,0.356-2.894c0.349-2.508,1.031-6.119,2.258-10.483
							c1.22-4.364,3.075-9.46,5.746-14.833c2.664-5.372,6.202-10.987,10.601-16.339c4.433-5.321,9.285-9.846,14.064-13.468
							c4.777-3.629,9.436-6.405,13.495-8.42c4.058-2.022,7.478-3.368,9.876-4.18c1.189-0.437,2.142-0.687,2.776-0.892
							c0.295-0.086,0.535-0.156,0.728-0.212C133.619,171.921,133.704,171.902,133.707,171.911z"/>
					</g>
				</g>
				<g>
					<g>
						<path style="fill:#FAFAFA;" d="M88.408,281.366c-0.026,0.025-0.386-0.334-1.015-1.005c-0.319-0.332-0.698-0.748-1.102-1.262
							c-0.408-0.51-0.898-1.073-1.362-1.754c-0.984-1.321-2.027-2.988-3.054-4.911c-0.996-1.938-1.958-4.14-2.738-6.534
							c-0.758-2.402-1.257-4.753-1.574-6.909c-0.283-2.161-0.403-4.124-0.372-5.771c-0.019-0.824,0.053-1.567,0.088-2.219
							c0.029-0.653,0.095-1.212,0.162-1.667c0.122-0.912,0.205-1.412,0.241-1.407c0.036,0.005,0.02,0.513-0.039,1.426
							c-0.036,0.456-0.072,1.014-0.073,1.663c-0.007,0.649-0.053,1.387-0.01,2.203c0.015,1.632,0.173,3.571,0.479,5.704
							c0.339,2.128,0.846,4.447,1.594,6.819c0.771,2.365,1.707,4.545,2.669,6.473c0.992,1.913,1.992,3.582,2.928,4.918
							c0.44,0.689,0.906,1.262,1.289,1.786c0.379,0.528,0.733,0.961,1.027,1.311C88.126,280.938,88.434,281.342,88.408,281.366z"/>
					</g>
				</g>
				<g>
					<g>
						<path style="fill:#FAFAFA;" d="M96.676,290.745c-0.041,0.132-1.024-0.087-2.027-0.786c-1.007-0.693-1.558-1.536-1.449-1.621
							c0.113-0.098,0.802,0.546,1.745,1.193C95.882,290.186,96.727,290.605,96.676,290.745z"/>
					</g>
				</g>
				<g>
					<g>
						<path style="fill:#FAFAFA;" d="M157.511,161.883c-0.062,0.11-2.099-1.58-3.258-4.535c-1.189-2.944-0.871-5.57-0.75-5.533
							c0.165-0.008,0.09,2.522,1.234,5.341C155.843,159.988,157.636,161.775,157.511,161.883z"/>
					</g>
				</g>
			</g>
			<g>
				<g style="opacity:0.3;">
					<g>
						<path d="M148.436,272.708c0.609-1.008,1.217-2.016,1.826-3.023c-0.161,0.57,0.064,1.195,0.446,1.648
							c0.382,0.453,0.904,0.762,1.425,1.044c1.032,0.559,2.314,1.041,3.334,0.46c1.023-0.583,1.264-1.984,1.024-3.136
							c-0.193-0.925-0.614-1.786-0.863-2.697c-0.249-0.911-0.308-1.943,0.186-2.748c0.566-0.921,1.69-1.307,2.733-1.592
							c3.876-1.057,7.92-1.63,11.921-1.269c4.001,0.361,7.966,1.695,11.137,4.161c-0.274-1.427-1.546-2.427-2.795-3.172
							c-5.163-3.081-11.593-4.073-17.372-2.412c-5.779,1.661-10.777,6.029-12.937,11.64"/>
					</g>
				</g>
				<g>
					<g>
						<path style="fill:#FAFAFA;" d="M151.154,267.413c0.369,1.684,1.302,3.239,2.613,4.358c0.489,0.417,1.173,0.788,1.745,0.497
							c0.651-0.332,0.67-1.246,0.547-1.967c-0.359-2.108-1.139-4.143-2.281-5.95"/>
					</g>
					<g>
						<path style="fill:#FAFAFA;" d="M184.751,267.413c-0.369,1.684-1.302,3.239-2.613,4.358c-0.489,0.417-1.173,0.788-1.745,0.497
							c-0.651-0.332-0.67-1.246-0.547-1.967c0.359-2.108,1.139-4.143,2.281-5.95"/>
					</g>
					<g>
						<g>
							<path style="fill:#263238;" d="M189.432,271.906c-0.325,0.247-2.131-2.032-5.687-4.846c-1.782-1.391-4.03-2.88-6.726-4.065
								c-2.682-1.195-5.845-2.015-9.21-2.176c-3.36-0.148-6.572,0.419-9.224,1.536c-2.656,1.124-4.783,2.745-6.27,4.362
								c-3.034,3.264-3.534,6.224-3.951,6.115c-0.156-0.025-0.245-0.783,0.032-2.119c0.286-1.322,1.018-3.214,2.507-5.178
								c1.471-1.966,3.735-3.962,6.702-5.37c2.968-1.403,6.582-2.114,10.32-1.947c3.738,0.177,7.227,1.169,10.105,2.602
								c2.888,1.421,5.192,3.194,6.921,4.85C188.403,269.028,189.688,271.739,189.432,271.906z"/>
						</g>
					</g>
				</g>
				<g style="opacity:0.3;">
					<g>
						<path d="M176.094,284.881c0.157,0.303-0.691,1.143-2.38,1.987c-1.678,0.844-4.227,1.61-7.119,1.73
							c-2.894,0.112-5.496-0.448-7.236-1.155c-1.751-0.706-2.663-1.475-2.531-1.79c0.295-0.696,4.466,0.596,9.663,0.343
							C171.689,285.832,175.744,284.211,176.094,284.881z"/>
					</g>
				</g>
			</g>
			<g>
				<g>
					<path style="fill:#FAFAFA;" d="M129.825,211.214c24.468,8.203,50.002,9.095,76.806,0.668c0,0-4.93,35.072-38.339,36.99
						C134.884,250.79,129.825,211.214,129.825,211.214z"/>
				</g>
				<g>
					<path style="fill:#263238;" d="M155.293,217.21c-1.269,8.446,0.184,16.327,3.877,24.028c0.974,2.031,2.152,4.037,3.921,5.431
						c1.77,1.394,4.245,2.073,6.331,1.222c2.029-0.828,3.276-2.864,4.201-4.851c4.044-8.691,4.413-15.777,4.84-25.354
						C171.123,219.545,163.364,219.201,155.293,217.21z"/>
				</g>
				<g style="opacity:0.3;">
					<g>
						<path d="M201.666,230.44c0.138,0.075-0.284,1.233-1.4,3.155c-1.107,1.924-3.044,4.541-5.947,7.296
							c-1.444,1.386-3.176,2.741-5.121,4.076c-1.986,1.267-4.174,2.548-6.637,3.561c-4.883,2.092-10.751,3.369-16.938,3.117
							c-6.185-0.335-11.907-2.164-16.57-4.71c-2.356-1.242-4.412-2.725-6.27-4.175c-1.809-1.514-3.405-3.027-4.712-4.544
							c-2.629-3.019-4.307-5.807-5.227-7.827c-0.929-2.018-1.239-3.211-1.094-3.273c0.184-0.083,0.807,0.965,1.979,2.777
							c1.163,1.817,3.012,4.342,5.689,7.066c1.331,1.37,2.922,2.732,4.693,4.097c1.819,1.302,3.805,2.641,6.057,3.754
							c4.458,2.289,9.828,3.918,15.578,4.233c5.752,0.231,11.251-0.881,15.905-2.737c2.347-0.895,4.451-2.039,6.385-3.162
							c1.893-1.191,3.606-2.396,5.061-3.633c2.924-2.458,5.005-4.796,6.334-6.495C200.771,231.324,201.49,230.34,201.666,230.44z"/>
					</g>
				</g>
				<g style="opacity:0.3;">
					<g>
						<path d="M199.099,206.035c-1.012-0.346-2.094,0.175-3.051,0.652c-9.134,4.56-19.626,6.358-29.758,5.099
							c-10.132-1.259-20.554-4.8-28.294-11.457c-2.102,1.119-2.638,4.078-1.723,6.275c0.916,2.198,2.892,3.759,4.893,5.049
							c6.893,4.443,15,6.831,23.174,7.497c8.174,0.666,16.425-0.342,24.388-2.306c3.921-0.967,8.021-2.317,10.589-5.434
							c0.672-0.816,1.234-1.781,1.292-2.837C200.666,207.517,200.099,206.377,199.099,206.035z"/>
					</g>
				</g>
				<g>
					<g>
						<path style="fill:#263238;" d="M197.785,205.773c0.384,0.523-2.219,3.4-7.742,6.211c-2.748,1.4-6.228,2.705-10.255,3.553
							c-4.021,0.852-8.596,1.192-13.355,0.756c-4.757-0.473-9.185-1.674-12.973-3.273c-3.794-1.595-6.965-3.536-9.397-5.432
							c-4.89-3.807-6.901-7.124-6.424-7.565c0.551-0.553,3.431,1.741,8.445,4.486c4.976,2.758,12.326,5.784,20.845,6.6
							c8.517,0.813,16.306-0.764,21.715-2.53C194.086,206.833,197.349,205.126,197.785,205.773z"/>
					</g>
				</g>
				<g>
					<g>
						<path style="fill:#FAFAFA;" d="M162.638,241.072c-0.029,0.021-0.225-0.203-0.556-0.628c-0.337-0.421-0.774-1.07-1.264-1.901
							c-0.984-1.658-2.088-4.125-2.73-7.012c-0.633-2.891-0.671-5.593-0.476-7.511c0.095-0.96,0.218-1.732,0.347-2.256
							c0.121-0.525,0.204-0.811,0.24-0.804c0.088,0.017-0.124,1.185-0.219,3.086c-0.099,1.898-0.003,4.54,0.617,7.373
							c0.63,2.83,1.655,5.266,2.543,6.946C162.026,240.049,162.711,241.019,162.638,241.072z"/>
					</g>
				</g>
				<g>
					<g>
						<path style="fill:#263238;" d="M214.571,209.811c0.038,0.101-1.139,0.619-3.306,1.47c-1.082,0.431-2.41,0.948-3.991,1.435
							c-1.579,0.489-3.352,1.145-5.375,1.645c-2.013,0.537-4.212,1.159-6.619,1.631c-1.201,0.245-2.434,0.55-3.722,0.767
							c-1.29,0.213-2.617,0.432-3.977,0.657c-5.458,0.784-11.513,1.362-17.887,1.363c-6.374-0.009-12.434-0.524-17.898-1.296
							c-2.719-0.469-5.314-0.85-7.7-1.427c-1.196-0.27-2.357-0.503-3.461-0.782c-1.097-0.298-2.151-0.585-3.158-0.859
							c-2.02-0.513-3.799-1.146-5.371-1.659c-0.784-0.264-1.517-0.499-2.182-0.74c-0.655-0.259-1.257-0.497-1.803-0.713
							c-2.161-0.867-3.334-1.393-3.296-1.493c0.098-0.266,4.91,1.55,12.932,3.536c1.005,0.241,2.057,0.492,3.153,0.754
							c1.1,0.245,2.256,0.446,3.445,0.686c2.373,0.517,4.948,0.845,7.641,1.271c5.412,0.685,11.398,1.15,17.694,1.159
							c6.295-0.001,12.278-0.529,17.686-1.226c1.349-0.2,2.665-0.395,3.944-0.585c1.279-0.191,2.504-0.467,3.698-0.683
							c2.394-0.413,4.587-0.967,6.601-1.431c2.024-0.427,3.804-1.005,5.397-1.411c1.594-0.405,2.943-0.835,4.05-1.176
							C213.286,210.035,214.534,209.71,214.571,209.811z"/>
					</g>
				</g>
			</g>
		</g>
	</g>
</g>
<g id="Floor">
	<g>
		<g>
			<path style="fill:#263238;" d="M477.028,480.071c0,0.144-101.986,0.26-227.763,0.26c-125.821,0-227.785-0.117-227.785-0.26
				c0-0.144,101.964-0.26,227.785-0.26C375.042,479.81,477.028,479.927,477.028,480.071z"/>
		</g>
	</g>
</g>
<g id="Lightning">
	<g>
		<polygon style="fill:#E8505B;" points="198.702,153.569 193.28,129.18 206.204,127.848 210.399,106.083 212.271,132.972 
			199.148,134.279 		"/>
		<polygon style="fill:#E8505B;" points="206.02,156.782 214.378,139.317 222.896,144.686 235.863,133.42 224.145,150.712 
			215.517,145.233 		"/>
		<polygon style="opacity:0.6;fill:#FFFFFF;" points="198.702,153.569 193.28,129.18 206.204,127.848 210.399,106.083 
			212.271,132.972 199.148,134.279 		"/>
		<polygon style="opacity:0.6;fill:#FFFFFF;" points="206.02,156.782 214.378,139.317 222.896,144.686 235.863,133.42 
			224.145,150.712 215.517,145.233 		"/>
	</g>
</g>
</svg>
